<?xml version="1.0" encoding="utf-8"?>
<!-- Generator: Adobe Illustrator 15.0.2, SVG Export Plug-In . SVG Version: 6.00 Build 0)  -->
<!DOCTYPE svg PUBLIC "-//W3C//DTD SVG 1.1//EN" "http://www.w3.org/Graphics/SVG/1.1/DTD/svg11.dtd">
<svg version="1.1" id="Слой_1" xmlns="http://www.w3.org/2000/svg" xmlns:xlink="http://www.w3.org/1999/xlink" x="0px" y="0px"
	 width="80px" height="80px" viewBox="0 0 80 80" enable-background="new 0 0 80 80" xml:space="preserve">
<path fill="#0AA6D3" d="M73.91,78.48h-4c-0.828,0-1.5-0.672-1.5-1.5s0.672-1.5,1.5-1.5h4c0.828,0,1.5,0.672,1.5,1.5
	S74.738,78.48,73.91,78.48z M65.91,78.48h-4c-0.828,0-1.5-0.672-1.5-1.5s0.672-1.5,1.5-1.5h4c0.828,0,1.5,0.672,1.5,1.5
	S66.738,78.48,65.91,78.48z M57.91,78.48h-4c-0.828,0-1.5-0.672-1.5-1.5s0.672-1.5,1.5-1.5h4c0.828,0,1.5,0.672,1.5,1.5
	S58.738,78.48,57.91,78.48z M49.91,78.48h-4c-0.828,0-1.5-0.672-1.5-1.5s0.672-1.5,1.5-1.5h4c0.828,0,1.5,0.672,1.5,1.5
	S50.738,78.48,49.91,78.48z M41.91,78.48h-4c-0.828,0-1.5-0.672-1.5-1.5s0.672-1.5,1.5-1.5h4c0.828,0,1.5,0.672,1.5,1.5
	S42.738,78.48,41.91,78.48z M33.911,78.48h-4c-0.828,0-1.5-0.672-1.5-1.5s0.672-1.5,1.5-1.5h4c0.828,0,1.5,0.672,1.5,1.5
	S34.739,78.48,33.911,78.48z M25.911,78.48h-3.748c-0.121,0-0.239-0.004-0.357-0.015c-0.826-0.059-1.449-0.774-1.391-1.602
	s0.785-1.468,1.602-1.392c0.049,0.004,0.098,0.006,0.146,0.006h3.748c0.828,0,1.5,0.672,1.5,1.5S26.739,78.48,25.911,78.48z
	 M77.512,77.186c-0.33,0-0.66-0.106-0.938-0.328c-0.646-0.518-0.752-1.461-0.234-2.106c0.279-0.351,0.426-0.771,0.426-1.215v-1.677
	c0-0.827,0.672-1.5,1.5-1.5s1.5,0.673,1.5,1.5v1.677c0,1.116-0.385,2.215-1.082,3.088C78.387,76.994,77.951,77.186,77.512,77.186z
	 M18.911,76.174c-0.619,0-1.199-0.385-1.416-1.004c-0.184-0.523-0.277-1.074-0.277-1.635c0-0.828,0.672-1.5,1.5-1.5
	c0.829,0,1.5,0.672,1.5,1.5c0,0.221,0.037,0.438,0.109,0.643c0.273,0.781-0.138,1.639-0.92,1.912
	C19.243,76.146,19.075,76.174,18.911,76.174z M78.266,69.359c-0.828,0-1.5-0.672-1.5-1.5v-4c0-0.828,0.672-1.5,1.5-1.5
	s1.5,0.672,1.5,1.5v4C79.766,68.688,79.094,69.359,78.266,69.359z M78.266,61.359c-0.828,0-1.5-0.672-1.5-1.5v-4
	c0-0.828,0.672-1.5,1.5-1.5s1.5,0.672,1.5,1.5v4C79.766,60.688,79.094,61.359,78.266,61.359z M78.266,53.359
	c-0.828,0-1.5-0.672-1.5-1.5v-4c0-0.828,0.672-1.5,1.5-1.5s1.5,0.672,1.5,1.5v4C79.766,52.688,79.094,53.359,78.266,53.359z
	 M78.266,45.359c-0.828,0-1.5-0.672-1.5-1.5v-4.001c0-0.828,0.672-1.5,1.5-1.5s1.5,0.672,1.5,1.5v4.001
	C79.766,44.688,79.094,45.359,78.266,45.359z M78.266,37.358c-0.828,0-1.5-0.672-1.5-1.5v-4c0-0.828,0.672-1.5,1.5-1.5
	s1.5,0.672,1.5,1.5v4C79.766,36.687,79.094,37.358,78.266,37.358z M18.717,31.086c-0.828,0-1.5-0.672-1.5-1.5v-4
	c0-0.828,0.672-1.5,1.5-1.5c0.829,0,1.5,0.672,1.5,1.5v4C20.217,30.414,19.546,31.086,18.717,31.086z M78.266,29.358
	c-0.828,0-1.5-0.672-1.5-1.5v-4c0-0.828,0.672-1.5,1.5-1.5s1.5,0.672,1.5,1.5v4C79.766,28.687,79.094,29.358,78.266,29.358z
	 M18.717,23.086c-0.828,0-1.5-0.672-1.5-1.5v-4c0-0.828,0.672-1.5,1.5-1.5c0.829,0,1.5,0.672,1.5,1.5v4
	C20.217,22.414,19.546,23.086,18.717,23.086z M78.266,21.358c-0.828,0-1.5-0.672-1.5-1.5v-4c0-0.828,0.672-1.5,1.5-1.5
	s1.5,0.672,1.5,1.5v4C79.766,20.687,79.094,21.358,78.266,21.358z M18.717,15.086c-0.828,0-1.5-0.672-1.5-1.5v-4
	c0-0.828,0.672-1.5,1.5-1.5c0.829,0,1.5,0.672,1.5,1.5v4C20.217,14.414,19.546,15.086,18.717,15.086z M78.266,13.358
	c-0.828,0-1.5-0.672-1.5-1.5v-4c0-0.828,0.672-1.5,1.5-1.5s1.5,0.672,1.5,1.5v4C79.766,12.687,79.094,13.358,78.266,13.358z
	 M18.83,7.096c-0.125,0-0.252-0.016-0.378-0.048c-0.803-0.209-1.283-1.028-1.074-1.83c0.496-1.909,2.075-3.338,4.023-3.64
	c0.813-0.121,1.586,0.434,1.712,1.253c0.127,0.818-0.435,1.585-1.253,1.712c-0.764,0.118-1.385,0.68-1.58,1.431
	C20.105,6.648,19.497,7.096,18.83,7.096z M77.326,5.601c-0.398,0-0.795-0.157-1.09-0.47c-0.373-0.395-0.875-0.611-1.414-0.611
	h-1.193c-0.83,0-1.5-0.672-1.5-1.5s0.67-1.5,1.5-1.5h1.193c1.354,0,2.664,0.565,3.596,1.551c0.568,0.603,0.541,1.552-0.063,2.121
	C78.066,5.465,77.695,5.601,77.326,5.601z M69.629,4.52h-4c-0.83,0-1.5-0.672-1.5-1.5s0.67-1.5,1.5-1.5h4c0.828,0,1.5,0.672,1.5,1.5
	S70.457,4.52,69.629,4.52z M61.629,4.52h-4c-0.83,0-1.5-0.672-1.5-1.5s0.67-1.5,1.5-1.5h4c0.828,0,1.5,0.672,1.5,1.5
	S62.457,4.52,61.629,4.52z M53.629,4.52h-4c-0.83,0-1.5-0.672-1.5-1.5s0.67-1.5,1.5-1.5h4c0.828,0,1.5,0.672,1.5,1.5
	S54.457,4.52,53.629,4.52z M45.629,4.52h-4c-0.83,0-1.5-0.672-1.5-1.5s0.67-1.5,1.5-1.5h4c0.828,0,1.5,0.672,1.5,1.5
	S46.457,4.52,45.629,4.52z M37.628,4.52h-4c-0.829,0-1.5-0.672-1.5-1.5s0.671-1.5,1.5-1.5h4c0.829,0,1.5,0.672,1.5,1.5
	S38.458,4.52,37.628,4.52z M29.628,4.52h-4c-0.829,0-1.5-0.672-1.5-1.5s0.671-1.5,1.5-1.5h4c0.829,0,1.5,0.672,1.5,1.5
	S30.458,4.52,29.628,4.52z M36.074,59.264c-1.569-2.861-4.579-4.639-7.853-4.639c-0.35,0-0.697,0.02-1.045,0.061l-4.443-8.09
	c0.039-0.26,0.049-0.521,0.04-0.781l12.433-22.639c1.164-2.12,0.387-4.796-1.738-5.966l-0.725-0.396
	c-0.727-0.397-1.637-0.13-2.035,0.595L18.706,39.263L6.704,17.408c-0.398-0.725-1.309-0.992-2.035-0.595L3.94,17.212
	c-2.121,1.168-2.898,3.843-1.734,5.964L14.374,45.33c-0.112,0.734-0.021,1.486,0.248,2.18l-4.339,7.182
	c-3.603-0.45-7.165,1.33-8.944,4.572c-2.377,4.326-0.791,9.781,3.538,12.16c1.364,0.748,2.839,1.104,4.295,1.104
	c3.165,0,6.237-1.678,7.866-4.643c1.773-3.23,1.37-7.172-0.913-9.965l2.581-4.699l2.58,4.699c-2.283,2.795-2.686,6.734-0.91,9.965
	c1.572,2.865,4.583,4.646,7.855,4.646l0,0c1.497,0,2.985-0.383,4.305-1.107C36.864,69.045,38.45,63.59,36.074,59.264z
	 M32.532,20.319c0.261,0.414,0.295,0.954,0.043,1.413L21.11,42.611c-0.191-0.146-0.395-0.273-0.608-0.385L32.532,20.319z
	 M12.973,57.426c-0.33,0.6-0.211,1.348,0.289,1.816c1.98,1.857,2.451,4.818,1.146,7.199c-1.581,2.879-5.21,3.932-8.087,2.354
	c-2.879-1.582-3.934-5.211-2.354-8.088c1.307-2.377,4.061-3.57,6.691-2.898c0.645,0.166,1.313-0.11,1.654-0.678l4.44-7.35
	c0.03,0.014,0.059,0.035,0.09,0.049l0.151,0.275L12.973,57.426z M31.09,68.795c-0.877,0.48-1.865,0.736-2.859,0.736l0,0
	c-2.178,0-4.18-1.184-5.227-3.09c-1.308-2.381-0.838-5.342,1.145-7.199c0.499-0.469,0.617-1.217,0.288-1.816l-5.239-9.541
	c-0.199-0.365-0.543-0.629-0.945-0.732c-0.197-0.049-0.562-0.192-0.781-0.592c-0.164-0.301-0.193-0.647-0.084-0.979
	c0.131-0.396,0.092-0.828-0.109-1.192L4.836,21.732c-0.252-0.459-0.218-1,0.043-1.414l13.028,23.723
	c0.2,0.365,0.544,0.631,0.948,0.732c0.339,0.086,0.615,0.297,0.779,0.596c0.164,0.297,0.193,0.645,0.084,0.979
	c-0.131,0.396-0.092,0.826,0.109,1.191l5.238,9.539c0.33,0.598,1.02,0.902,1.686,0.73c0.479-0.123,0.974-0.185,1.469-0.185
	c2.178,0,4.18,1.181,5.223,3.084C35.025,63.586,33.969,67.213,31.09,68.795z"/>
</svg>
