<?xml version="1.0" encoding="utf-8"?>
<!-- Generator: Adobe Illustrator 15.0.2, SVG Export Plug-In . SVG Version: 6.00 Build 0)  -->
<!DOCTYPE svg PUBLIC "-//W3C//DTD SVG 1.1//EN" "http://www.w3.org/Graphics/SVG/1.1/DTD/svg11.dtd">
<svg version="1.1" id="Слой_1" xmlns="http://www.w3.org/2000/svg" xmlns:xlink="http://www.w3.org/1999/xlink" x="0px" y="0px"
	 width="80px" height="80px" viewBox="0 0 80 80" enable-background="new 0 0 80 80" xml:space="preserve">
<path fill="#10A7D4" d="M17.788,63.021c-3.703,0-6.811-2.657-7.39-6.319c-0.645-4.078,2.148-7.922,6.227-8.567
	c0.39-0.062,0.786-0.093,1.178-0.093c3.702,0,6.812,2.658,7.393,6.319c0.643,4.08-2.152,7.923-6.229,8.566
	C18.576,62.991,18.181,63.021,17.788,63.021z M17.803,51.042c-0.235,0-0.474,0.019-0.709,0.056c-2.444,0.389-4.118,2.69-3.732,5.137
	c0.348,2.195,2.209,3.789,4.427,3.789c0.235,0,0.474-0.021,0.709-0.058c2.444-0.387,4.12-2.69,3.735-5.136
	C21.884,52.636,20.021,51.042,17.803,51.042z M17.565,54.07c-0.808,0.128-1.357,0.886-1.23,1.693
	c0.127,0.807,0.885,1.356,1.692,1.229c0.81-0.128,1.358-0.886,1.23-1.692C19.131,54.493,18.371,53.941,17.565,54.07z M60.4,63.027
	c-3.702,0-6.812-2.657-7.392-6.319c-0.644-4.078,2.149-7.922,6.228-8.567c0.39-0.062,0.785-0.093,1.179-0.093
	c3.703,0,6.813,2.658,7.394,6.319c0.645,4.078-2.15,7.923-6.23,8.568C61.188,62.997,60.792,63.027,60.4,63.027z M60.415,51.048
	c-0.235,0-0.476,0.019-0.71,0.056c-2.443,0.389-4.118,2.69-3.732,5.137c0.348,2.195,2.211,3.789,4.428,3.789
	c0.236,0,0.475-0.02,0.709-0.057c2.445-0.388,4.123-2.69,3.736-5.136C64.497,52.643,62.634,51.048,60.415,51.048z M60.177,54.077
	c-0.807,0.127-1.358,0.885-1.229,1.692c0.127,0.808,0.885,1.356,1.691,1.229c0.811-0.128,1.359-0.885,1.23-1.692
	C61.741,54.499,60.982,53.949,60.177,54.077z M78.268,55.911h-7.637c-0.406,0-0.797-0.166-1.079-0.459s-0.435-0.688-0.42-1.095
	c0.019-0.541-0.013-1.071-0.093-1.58c-0.637-4.012-4.039-6.924-8.092-6.924c-0.432,0-0.865,0.033-1.295,0.103
	c-3.439,0.545-6.166,3.218-6.782,6.649c-0.138,0.766-0.833,1.3-1.608,1.229c-0.775-0.069-1.367-0.718-1.367-1.494v-33.87
	c0-0.829,0.672-1.5,1.5-1.5h13.438c0.473,0,0.918,0.223,1.201,0.602l13.438,17.969c0.193,0.26,0.299,0.575,0.299,0.898v17.971
	C79.768,55.239,79.096,55.911,78.268,55.911z M72.08,52.911h4.688V36.94L64.08,19.972H52.895v26.295
	c1.649-1.705,3.838-2.886,6.291-3.273c0.582-0.092,1.176-0.139,1.763-0.139c5.536,0,10.187,3.976,11.055,9.453
	C72.033,52.507,72.061,52.708,72.08,52.911z M46.206,16.972H1.732c-0.829,0-1.5,0.671-1.5,1.5v35.939c0,0.828,0.671,1.5,1.5,1.5
	h6.322c0.007-0.002,0.014,0,0.02,0c0.829,0,1.5-0.672,1.5-1.5c0-0.078-0.006-0.154-0.017-0.229c0.103-3.959,2.976-7.252,6.908-7.873
	c0.429-0.067,0.864-0.104,1.294-0.104c4.053,0,7.456,2.912,8.092,6.922c0.06,0.379,0.088,0.789,0.09,1.289
	c0.003,0.826,0.674,1.494,1.5,1.494h18.765c0.828,0,1.5-0.672,1.5-1.5V18.472C47.706,17.643,47.034,16.972,46.206,16.972z
	 M44.706,19.972v11.827H3.232V19.972H44.706z M28.851,52.911c-0.011-0.084-0.023-0.168-0.036-0.251
	c-0.868-5.479-5.518-9.454-11.055-9.454c-0.586,0-1.18,0.047-1.763,0.14c-4.974,0.786-8.706,4.698-9.345,9.565h-3.42V34.799h41.474
	v18.112H28.851z M69.242,33.849H55.773c-0.828,0-1.5-0.672-1.5-1.5v-9.006c0-0.829,0.672-1.5,1.5-1.5h6.733
	c0.474,0,0.918,0.223,1.201,0.602l6.733,9.006c0.341,0.455,0.396,1.063,0.141,1.57C70.329,33.528,69.811,33.849,69.242,33.849z
	 M57.273,30.849h8.975l-4.491-6.006h-4.483V30.849L57.273,30.849z"/>
</svg>
