<?xml version="1.0" encoding="utf-8"?>
<!-- Generator: Adobe Illustrator 15.0.2, SVG Export Plug-In . SVG Version: 6.00 Build 0)  -->
<!DOCTYPE svg PUBLIC "-//W3C//DTD SVG 1.1//EN" "http://www.w3.org/Graphics/SVG/1.1/DTD/svg11.dtd">
<svg version="1.1" id="Слой_1" xmlns="http://www.w3.org/2000/svg" xmlns:xlink="http://www.w3.org/1999/xlink" x="0px" y="0px"
	 width="80px" height="80px" viewBox="0 0 80 80" enable-background="new 0 0 80 80" xml:space="preserve">
<path fill="#10A7D4" d="M45.85,39.288c-0.232,0-0.467-0.056-0.682-0.168L40,36.402l-5.166,2.717
	c-0.494,0.259-1.091,0.216-1.543-0.112c-0.452-0.328-0.677-0.883-0.583-1.433l0.986-5.754l-4.18-4.075
	c-0.399-0.39-0.543-0.971-0.371-1.501c0.173-0.531,0.631-0.917,1.183-0.998l5.777-0.84l2.583-5.234
	c0.247-0.5,0.756-0.817,1.314-0.817c0.557,0,1.066,0.317,1.314,0.816l2.584,5.235l5.776,0.84c0.554,0.08,1.011,0.467,1.183,0.998
	c0.174,0.53,0.029,1.112-0.371,1.501l-4.18,4.075l0.987,5.754c0.095,0.549-0.132,1.105-0.583,1.433
	C46.456,39.193,46.154,39.288,45.85,39.288z M40,33.282c0.234,0,0.468,0.057,0.682,0.168l3.223,1.694l-0.614-3.587
	c-0.082-0.475,0.076-0.96,0.422-1.297l2.604-2.541l-3.603-0.524c-0.478-0.069-0.89-0.369-1.104-0.801L40,23.131l-1.61,3.263
	c-0.213,0.433-0.625,0.732-1.103,0.802l-3.602,0.524l2.606,2.541c0.345,0.336,0.503,0.822,0.421,1.297l-0.615,3.587l3.22-1.694
	C39.531,33.338,39.765,33.282,40,33.282z M40,48.699c-10.961,0-19.878-8.917-19.878-19.877c0-10.96,8.917-19.879,19.878-19.879
	s19.879,8.917,19.879,19.878C59.879,39.782,50.961,48.699,40,48.699z M40,11.874c-9.345,0-16.948,7.603-16.948,16.948
	c0,9.345,7.603,16.947,16.948,16.947c9.346,0,16.947-7.603,16.947-16.947C56.948,19.476,49.346,11.874,40,11.874z M42.375,55.91
	c-0.799,0-1.596-0.23-2.375-0.692c-0.779,0.462-1.575,0.692-2.375,0.692c-0.786,0-1.869-0.232-2.945-1.213
	c-0.542,0.189-1.075,0.285-1.592,0.285c-0.826,0-2.244-0.262-3.373-1.814c-2.033,0.293-3.65-0.611-4.49-2.434
	c-2.01-0.098-3.427-1.289-3.91-3.225c-1.18-0.289-1.894-0.877-2.309-1.379c-0.416-0.504-0.859-1.316-0.919-2.533
	c-1.104-0.511-1.694-1.226-2.007-1.8c-0.316-0.579-0.6-1.473-0.425-2.693c-0.99-0.722-1.436-1.546-1.635-2.175
	c-0.203-0.641-0.313-1.594,0.105-2.789c-0.836-0.921-1.115-1.834-1.19-2.502c-0.077-0.689,0.003-1.682,0.67-2.818
	c-0.667-1.137-0.747-2.129-0.67-2.819c0.075-0.667,0.354-1.581,1.19-2.501c-0.417-1.196-0.308-2.149-0.105-2.79
	c0.199-0.628,0.645-1.452,1.635-2.174c-0.175-1.221,0.108-2.114,0.424-2.693c0.313-0.574,0.904-1.289,2.008-1.799
	c0.061-1.217,0.504-2.031,0.92-2.534c0.415-0.502,1.129-1.09,2.309-1.378c0.483-1.935,1.9-3.126,3.909-3.225
	c0.84-1.82,2.458-2.729,4.49-2.432c1.129-1.555,2.547-1.816,3.373-1.816c0.518,0,1.05,0.096,1.592,0.286
	c1.076-0.98,2.159-1.213,2.945-1.213c0.8,0,1.596,0.232,2.375,0.692c0.779-0.46,1.576-0.692,2.375-0.692
	c0.786,0,1.87,0.233,2.945,1.213c0.541-0.19,1.074-0.286,1.593-0.286c0.825,0,2.244,0.261,3.372,1.816
	c2.035-0.297,3.65,0.612,4.49,2.432c2.01,0.099,3.426,1.29,3.91,3.225c1.18,0.289,1.893,0.876,2.309,1.379
	c0.416,0.503,0.857,1.317,0.92,2.534c1.104,0.511,1.693,1.226,2.007,1.799c0.315,0.579,0.601,1.472,0.427,2.693
	c0.988,0.722,1.435,1.546,1.633,2.174c0.203,0.641,0.313,1.594-0.105,2.79c0.838,0.92,1.116,1.833,1.189,2.5
	c0.078,0.69-0.002,1.683-0.668,2.82c0.666,1.136,0.746,2.129,0.668,2.819c-0.073,0.667-0.353,1.58-1.189,2.501
	c0.418,1.194,0.311,2.147,0.105,2.789c-0.198,0.629-0.644,1.453-1.633,2.175c0.174,1.221-0.109,2.114-0.427,2.693
	c-0.313,0.574-0.903,1.288-2.007,1.799c-0.063,1.217-0.504,2.03-0.92,2.534c-0.416,0.502-1.129,1.091-2.309,1.379
	c-0.484,1.937-1.9,3.128-3.91,3.226c-0.84,1.82-2.455,2.726-4.49,2.433c-1.128,1.554-2.547,1.815-3.372,1.815
	c-0.519,0-1.052-0.096-1.593-0.286C44.245,55.678,43.161,55.91,42.375,55.91z M40,51.958c0.336,0,0.672,0.114,0.943,0.345
	c1.123,0.946,1.953,0.913,2.848-0.265c0.443-0.587,1.253-0.753,1.893-0.39c0.463,0.266,0.89,0.403,1.229,0.403
	c0.192,0,0.778,0,1.338-1.187c0.317-0.678,1.097-1.006,1.804-0.764c0.361,0.127,0.688,0.188,0.965,0.188
	c0.313,0,0.965,0,1.313-1.419c0.18-0.732,0.889-1.216,1.633-1.104c0.189,0.027,0.369,0.043,0.539,0.043
	c0.686,0,1.357-0.129,1.43-1.664c0.035-0.756,0.641-1.359,1.396-1.396c0.477-0.022,1.107-0.126,1.406-0.487
	c0.302-0.365,0.283-1.008,0.215-1.48c-0.105-0.747,0.369-1.453,1.104-1.633c0.465-0.113,1.066-0.338,1.297-0.758
	c0.23-0.425,0.092-1.061-0.066-1.521c-0.242-0.708,0.086-1.484,0.763-1.802c0.438-0.206,0.992-0.551,1.142-1.025
	c0.153-0.485-0.108-1.105-0.357-1.541c-0.364-0.639-0.198-1.45,0.389-1.894c0.396-0.299,0.879-0.767,0.937-1.295
	c0.063-0.551-0.331-1.147-0.671-1.55c-0.461-0.546-0.461-1.344,0-1.89c0.34-0.403,0.732-1,0.671-1.551
	c-0.058-0.529-0.54-0.996-0.937-1.294c-0.587-0.444-0.753-1.254-0.389-1.894c0.248-0.436,0.512-1.057,0.357-1.542
	c-0.148-0.474-0.703-0.819-1.142-1.025c-0.677-0.319-1.005-1.095-0.763-1.802c0.158-0.459,0.298-1.097,0.066-1.521
	c-0.229-0.421-0.832-0.645-1.299-0.759c-0.732-0.18-1.207-0.886-1.102-1.632c0.068-0.474,0.087-1.116-0.215-1.48
	c-0.299-0.363-0.93-0.466-1.406-0.488c-0.756-0.035-1.359-0.64-1.396-1.396c-0.072-1.535-0.746-1.663-1.432-1.663
	c-0.17,0-0.35,0.015-0.538,0.042c-0.743,0.105-1.452-0.37-1.632-1.102c-0.348-1.42-0.999-1.42-1.313-1.42
	c-0.277,0-0.604,0.063-0.967,0.188c-0.709,0.242-1.484-0.085-1.802-0.762c-0.56-1.183-1.146-1.183-1.338-1.183
	c-0.341,0-0.767,0.14-1.229,0.404c-0.64,0.364-1.447,0.197-1.893-0.389c-0.893-1.178-1.725-1.21-2.848-0.265
	c-0.545,0.461-1.343,0.461-1.888,0c-1.12-0.945-1.951-0.913-2.845,0.265c-0.444,0.586-1.252,0.753-1.893,0.389
	c-0.464-0.265-0.89-0.404-1.229-0.404c-0.193,0-0.78,0-1.338,1.187c-0.318,0.677-1.096,1.004-1.802,0.762
	c-0.363-0.125-0.688-0.188-0.967-0.188c-0.313,0-0.964,0-1.312,1.42c-0.179,0.732-0.887,1.208-1.632,1.102
	c-0.189-0.027-0.368-0.042-0.538-0.042c-0.686,0-1.36,0.128-1.431,1.663c-0.036,0.756-0.64,1.36-1.396,1.396
	c-0.476,0.022-1.107,0.125-1.407,0.488c-0.301,0.364-0.283,1.006-0.214,1.48c0.107,0.747-0.369,1.453-1.102,1.632
	c-0.465,0.114-1.069,0.338-1.298,0.759c-0.231,0.424-0.092,1.061,0.066,1.521c0.243,0.707-0.085,1.484-0.762,1.802
	c-0.438,0.206-0.991,0.551-1.142,1.024c-0.153,0.485,0.11,1.106,0.358,1.542c0.364,0.639,0.198,1.449-0.388,1.893
	c-0.395,0.298-0.877,0.766-0.937,1.294c-0.061,0.552,0.332,1.148,0.672,1.551c0.46,0.545,0.46,1.344,0,1.89
	c-0.34,0.403-0.733,0.999-0.672,1.55c0.059,0.529,0.542,0.997,0.937,1.296c0.586,0.444,0.752,1.254,0.388,1.893
	c-0.248,0.436-0.512,1.056-0.358,1.541c0.15,0.474,0.704,0.819,1.142,1.025c0.677,0.318,1.005,1.095,0.762,1.802
	c-0.158,0.46-0.298,1.096-0.066,1.521c0.229,0.42,0.833,0.645,1.297,0.758c0.733,0.18,1.209,0.885,1.103,1.632
	c-0.068,0.475-0.087,1.116,0.214,1.481c0.3,0.361,0.931,0.465,1.408,0.487c0.755,0.035,1.359,0.64,1.395,1.396
	c0.071,1.535,0.745,1.664,1.43,1.664c0.17,0,0.35-0.016,0.539-0.043c0.741-0.112,1.453,0.371,1.632,1.104
	c0.347,1.419,0.994,1.443,1.312,1.419c0.278,0,0.604-0.063,0.966-0.188c0.706-0.242,1.484,0.086,1.803,0.764
	c0.559,1.188,1.145,1.188,1.338,1.188c0.34,0,0.765-0.14,1.229-0.404c0.638-0.363,1.448-0.197,1.893,0.39
	c0.895,1.178,1.726,1.211,2.845,0.265C39.328,52.072,39.664,51.958,40,51.958z M23.512,78.216c0.437-0.118,0.793-0.435,0.967-0.854
	l7.914-19.113c0.31-0.747-0.045-1.604-0.793-1.914c-0.746-0.311-1.604,0.046-1.914,0.794l-7.192,17.369l-5.557-4.17
	c-0.197-0.147-0.429-0.244-0.673-0.278l-6.88-0.979l7.192-17.37c0.31-0.748-0.045-1.604-0.793-1.914
	c-0.747-0.312-1.604,0.044-1.914,0.792L5.953,69.693c-0.173,0.418-0.144,0.894,0.082,1.285c0.224,0.395,0.617,0.662,1.066,0.726
	l8.377,1.192l6.767,5.078c0.257,0.192,0.566,0.293,0.88,0.293C23.254,78.268,23.384,78.251,23.512,78.216z M57.755,77.977
	l6.767-5.08l8.379-1.191c0.449-0.063,0.843-0.331,1.065-0.725c0.226-0.394,0.255-0.869,0.081-1.287l-7.915-19.114
	c-0.309-0.748-1.167-1.103-1.913-0.792c-0.748,0.311-1.103,1.166-0.794,1.914l7.192,17.369l-6.879,0.979
	c-0.245,0.034-0.477,0.13-0.674,0.278l-5.559,4.17l-7.191-17.369c-0.31-0.748-1.168-1.104-1.914-0.794
	c-0.748,0.31-1.103,1.167-0.793,1.914l7.914,19.114c0.174,0.419,0.529,0.734,0.967,0.854c0.128,0.035,0.258,0.053,0.388,0.053
	C57.189,78.268,57.499,78.168,57.755,77.977z"/>
</svg>
