<?xml version="1.0" encoding="utf-8"?>
<!-- Generator: Adobe Illustrator 15.0.2, SVG Export Plug-In . SVG Version: 6.00 Build 0)  -->
<!DOCTYPE svg PUBLIC "-//W3C//DTD SVG 1.1//EN" "http://www.w3.org/Graphics/SVG/1.1/DTD/svg11.dtd">
<svg version="1.1" id="Слой_1" xmlns="http://www.w3.org/2000/svg" xmlns:xlink="http://www.w3.org/1999/xlink" x="0px" y="0px"
	 width="80px" height="80px" viewBox="0 0 80 80" enable-background="new 0 0 80 80" xml:space="preserve">
<path fill="#0AA6D3" d="M60.85,43.133H39.563c-0.829,0-1.5-0.672-1.5-1.5V17.317c0-0.828,0.671-1.5,1.5-1.5s1.5,0.672,1.5,1.5
	v22.815H60.85c0.83,0,1.5,0.673,1.5,1.5C62.35,42.46,61.68,43.133,60.85,43.133z M40.615,74.96c1.387-0.022,2.787-0.131,4.162-0.317
	c0.82-0.112,1.395-0.869,1.281-1.689c-0.111-0.821-0.869-1.391-1.689-1.283c-1.256,0.172-2.535,0.271-3.805,0.291
	c-0.829,0.014-1.488,0.696-1.476,1.525c0.014,0.818,0.683,1.475,1.5,1.475C40.598,74.96,40.605,74.96,40.615,74.96z M38.089,73.445
	c0.083-0.824-0.517-1.562-1.341-1.645c-1.27-0.129-2.537-0.334-3.768-0.609c-0.805-0.176-1.611,0.326-1.792,1.136
	c-0.182,0.809,0.327,1.61,1.136,1.792c1.347,0.302,2.733,0.525,4.121,0.667c0.052,0.006,0.103,0.008,0.153,0.008
	C37.359,74.794,38.011,74.218,38.089,73.445z M48.873,73.829c1.342-0.351,2.677-0.788,3.97-1.298
	c0.771-0.305,1.148-1.176,0.845-1.946c-0.305-0.771-1.176-1.149-1.945-0.845c-1.182,0.467-2.402,0.865-3.629,1.187
	c-0.801,0.21-1.28,1.029-1.07,1.831c0.178,0.674,0.784,1.12,1.45,1.12C48.617,73.878,48.746,73.861,48.873,73.829z M30.223,72.049
	c0.277-0.779-0.131-1.638-0.912-1.915c-1.191-0.423-2.375-0.924-3.516-1.489c-0.741-0.369-1.643-0.064-2.01,0.676
	c-0.369,0.742-0.065,1.644,0.676,2.012c1.248,0.619,2.543,1.168,3.848,1.631c0.166,0.059,0.334,0.086,0.501,0.086
	C29.427,73.048,30.005,72.664,30.223,72.049z M56.625,70.768c1.217-0.656,2.409-1.397,3.547-2.203
	c0.676-0.479,0.836-1.414,0.357-2.09c-0.479-0.677-1.412-0.839-2.09-0.358c-1.041,0.735-2.131,1.413-3.242,2.014
	c-0.729,0.394-1,1.304-0.605,2.033c0.271,0.502,0.788,0.786,1.321,0.786C56.154,70.948,56.398,70.891,56.625,70.768z M22.914,68.82
	c0.455-0.692,0.263-1.622-0.43-2.077c-1.062-0.697-2.092-1.466-3.063-2.282c-0.634-0.534-1.58-0.452-2.113,0.182
	c-0.534,0.635-0.452,1.58,0.182,2.113c1.062,0.895,2.188,1.733,3.349,2.495c0.253,0.167,0.539,0.246,0.821,0.246
	C22.147,69.497,22.627,69.259,22.914,68.82z M63.43,65.956c1.029-0.929,2.014-1.931,2.928-2.978
	c0.543-0.625,0.479-1.572-0.146-2.117c-0.624-0.543-1.571-0.48-2.116,0.145c-0.836,0.958-1.736,1.874-2.677,2.725
	c-0.614,0.555-0.663,1.504-0.108,2.117c0.297,0.328,0.705,0.495,1.114,0.495C62.783,66.343,63.143,66.215,63.43,65.956z
	 M16.58,63.953c0.605-0.566,0.638-1.516,0.072-2.12c-0.869-0.931-1.689-1.918-2.439-2.938c-0.49-0.668-1.43-0.812-2.097-0.32
	c-0.668,0.49-0.812,1.429-0.321,2.097c0.818,1.116,1.716,2.196,2.666,3.212c0.295,0.316,0.695,0.477,1.096,0.477
	C15.924,64.357,16.291,64.225,16.58,63.953z M68.91,59.674c0.783-1.148,1.505-2.355,2.143-3.586
	c0.383-0.734,0.096-1.641-0.641-2.021c-0.734-0.383-1.641-0.094-2.021,0.642c-0.584,1.123-1.242,2.228-1.959,3.276
	c-0.467,0.686-0.289,1.617,0.396,2.084c0.258,0.178,0.553,0.262,0.844,0.262C68.148,60.329,68.62,60.1,68.91,59.674z M11.573,57.732
	c0.722-0.407,0.976-1.322,0.569-2.043c-0.624-1.104-1.187-2.258-1.673-3.429c-0.318-0.766-1.194-1.128-1.961-0.81
	c-0.765,0.316-1.127,1.195-0.81,1.96c0.532,1.28,1.148,2.544,1.831,3.752c0.276,0.487,0.784,0.763,1.308,0.763
	C11.087,57.927,11.34,57.864,11.573,57.732z M72.752,52.271c0.488-1.303,0.9-2.646,1.229-3.996c0.195-0.805-0.299-1.615-1.104-1.812
	c-0.809-0.19-1.615,0.3-1.813,1.104c-0.299,1.231-0.676,2.459-1.123,3.648c-0.289,0.775,0.104,1.641,0.879,1.932
	c0.174,0.064,0.352,0.096,0.527,0.096C71.954,53.244,72.525,52.873,72.752,52.271z M8.181,50.506
	c0.797-0.225,1.262-1.053,1.039-1.85c-0.342-1.219-0.614-2.473-0.809-3.729c-0.126-0.817-0.893-1.378-1.712-1.253
	c-0.818,0.127-1.379,0.893-1.253,1.712c0.213,1.375,0.51,2.748,0.885,4.081c0.186,0.662,0.788,1.096,1.443,1.096
	C7.908,50.563,8.045,50.544,8.181,50.506z M74.721,44.166c0.163-1.375,0.246-2.775,0.246-4.167
	c-0.001-0.818-0.029-1.644-0.086-2.454c-0.057-0.826-0.771-1.459-1.6-1.393c-0.826,0.057-1.45,0.773-1.393,1.6
	c0.051,0.742,0.076,1.499,0.077,2.248c0,1.271-0.075,2.555-0.226,3.813c-0.098,0.822,0.49,1.568,1.313,1.666
	c0.061,0.008,0.119,0.012,0.178,0.012C73.982,45.489,74.63,44.93,74.721,44.166z M6.606,42.676c0.828-0.029,1.476-0.724,1.447-1.552
	C8.04,40.751,8.034,40.376,8.034,40c0-0.897,0.038-1.804,0.112-2.693c0.069-0.826-0.544-1.551-1.37-1.62
	c-0.836-0.064-1.551,0.545-1.62,1.37C5.075,38.029,5.034,39.02,5.034,40c0,0.411,0.007,0.82,0.021,1.229
	c0.028,0.811,0.694,1.447,1.498,1.447C6.571,42.677,6.589,42.677,6.606,42.676z M73.152,35.158c0.813-0.156,1.348-0.941,1.191-1.756
	c-0.261-1.365-0.607-2.727-1.027-4.047c-0.252-0.79-1.1-1.228-1.885-0.973c-0.789,0.252-1.226,1.096-0.975,1.885
	c0.386,1.206,0.702,2.451,0.939,3.699c0.138,0.718,0.767,1.218,1.473,1.218C72.963,35.185,73.059,35.176,73.152,35.158z
	 M8.689,33.528c0.256-1.245,0.589-2.485,0.993-3.687c0.263-0.785-0.16-1.636-0.945-1.898c-0.785-0.266-1.636,0.159-1.899,0.945
	c-0.441,1.315-0.807,2.673-1.086,4.036c-0.167,0.812,0.356,1.604,1.167,1.771c0.102,0.021,0.203,0.03,0.303,0.03
	C7.918,34.727,8.543,34.238,8.689,33.528z M71.07,27.447c0.752-0.345,1.084-1.235,0.738-1.988c-0.578-1.26-1.236-2.499-1.961-3.683
	c-0.433-0.707-1.355-0.93-2.063-0.497c-0.707,0.432-0.931,1.355-0.497,2.062c0.662,1.083,1.266,2.216,1.794,3.368
	c0.252,0.551,0.796,0.875,1.364,0.875C70.654,27.584,70.867,27.54,71.07,27.447z M11.11,26.3c0.544-1.146,1.164-2.271,1.841-3.345
	c0.443-0.7,0.234-1.627-0.467-2.069c-0.7-0.438-1.626-0.232-2.069,0.468c-0.742,1.175-1.42,2.405-2.016,3.659
	c-0.355,0.748-0.037,1.644,0.711,1.998c0.208,0.1,0.427,0.146,0.643,0.146C10.315,27.156,10.853,26.84,11.11,26.3z M67.213,20.459
	c0.65-0.514,0.762-1.456,0.248-2.106c-0.857-1.089-1.793-2.138-2.777-3.118c-0.586-0.586-1.537-0.582-2.121,0.004
	c-0.584,0.587-0.582,1.536,0.004,2.121c0.9,0.896,1.754,1.856,2.539,2.851c0.297,0.376,0.735,0.571,1.18,0.571
	C66.609,20.781,66.938,20.676,67.213,20.459z M15.18,19.854c0.803-0.987,1.67-1.935,2.58-2.814c0.596-0.576,0.61-1.526,0.034-2.121
	c-0.576-0.597-1.526-0.61-2.12-0.035c-0.996,0.963-1.945,1.999-2.822,3.078c-0.522,0.644-0.425,1.588,0.218,2.11
	c0.278,0.226,0.612,0.336,0.945,0.336C14.451,20.408,14.883,20.219,15.18,19.854z M61.813,14.573
	c0.511-0.651,0.396-1.595-0.256-2.105c-1.091-0.856-2.246-1.656-3.434-2.377c-0.708-0.429-1.631-0.203-2.061,0.504
	c-0.431,0.708-0.205,1.631,0.504,2.062c1.086,0.659,2.142,1.39,3.139,2.172c0.275,0.216,0.602,0.32,0.926,0.32
	C61.075,15.147,61.516,14.95,61.813,14.573z M20.655,14.55c1.012-0.771,2.077-1.485,3.169-2.127
	c0.714-0.419,0.953-1.339,0.533-2.053c-0.42-0.715-1.34-0.955-2.053-0.533c-1.194,0.701-2.36,1.483-3.467,2.326
	c-0.659,0.502-0.787,1.443-0.285,2.103c0.295,0.387,0.742,0.591,1.195,0.591C20.064,14.856,20.384,14.757,20.655,14.55z
	 M55.175,10.126c0.343-0.754,0.009-1.643-0.747-1.985c-1.267-0.574-2.58-1.077-3.902-1.494c-0.787-0.247-1.633,0.19-1.881,0.979
	c-0.25,0.79,0.188,1.633,0.979,1.882c1.209,0.381,2.408,0.84,3.566,1.365c0.201,0.091,0.41,0.134,0.617,0.134
	C54.379,11.007,54.924,10.68,55.175,10.126z M27.223,10.69c1.16-0.507,2.366-0.949,3.584-1.314c0.793-0.238,1.243-1.074,1.005-1.868
	c-0.237-0.793-1.074-1.243-1.868-1.005c-1.332,0.399-2.65,0.884-3.921,1.438c-0.759,0.332-1.106,1.216-0.774,1.975
	c0.246,0.564,0.797,0.9,1.375,0.9C26.824,10.815,27.027,10.775,27.223,10.69z M47.672,7.382c0.152-0.814-0.385-1.598-1.199-1.75
	c-1.361-0.254-2.755-0.43-4.141-0.521c-0.83-0.053-1.541,0.572-1.596,1.398c-0.055,0.826,0.57,1.541,1.396,1.596
	c1.271,0.084,2.544,0.244,3.789,0.477c0.095,0.018,0.187,0.025,0.277,0.025C46.907,8.606,47.537,8.104,47.672,7.382z M34.52,8.502
	c1.248-0.216,2.524-0.358,3.794-0.424c0.827-0.043,1.464-0.748,1.421-1.575s-0.759-1.462-1.575-1.421
	c-1.388,0.071-2.784,0.228-4.149,0.463c-0.816,0.142-1.364,0.918-1.223,1.734c0.125,0.729,0.76,1.244,1.476,1.244
	C34.348,8.523,34.434,8.517,34.52,8.502z M79.768,40c0-21.929-17.84-39.769-39.768-39.769C18.072,0.231,0.232,18.071,0.232,40
	c0,21.93,17.84,39.77,39.768,39.77C61.928,79.77,79.768,61.93,79.768,40z M76.768,40c0,20.273-16.494,36.77-36.768,36.77
	C19.726,76.77,3.232,60.273,3.232,40C3.232,19.726,19.727,3.231,40,3.231C60.273,3.231,76.768,19.726,76.768,40z"/>
</svg>
