<?xml version="1.0" encoding="utf-8"?>
<!-- Generator: Adobe Illustrator 15.0.2, SVG Export Plug-In . SVG Version: 6.00 Build 0)  -->
<!DOCTYPE svg PUBLIC "-//W3C//DTD SVG 1.1//EN" "http://www.w3.org/Graphics/SVG/1.1/DTD/svg11.dtd">
<svg version="1.1" id="Слой_1" xmlns="http://www.w3.org/2000/svg" xmlns:xlink="http://www.w3.org/1999/xlink" x="0px" y="0px"
	 width="80px" height="80px" viewBox="0 0 80 80" enable-background="new 0 0 80 80" xml:space="preserve">
<path fill="#10A7D4" d="M5.846,36.46h23.809v3H5.846V36.46z M72.707,40.625v23.742c0,3.07-2.498,5.57-5.568,5.57H5.801
	c-3.071,0-5.569-2.5-5.569-5.57v-33.37c0-3.07,2.498-5.568,5.569-5.568h40.309c0.764-8.6,7.996-15.367,16.791-15.367
	c9.301,0,16.867,7.566,16.867,16.867C79.768,32.571,76.975,37.561,72.707,40.625z M49.033,26.929
	c0,7.646,6.221,13.866,13.867,13.866c7.646,0,13.867-6.22,13.867-13.866S70.546,13.062,62.9,13.062
	C55.254,13.062,49.033,19.283,49.033,26.929z M69.707,64.367v-1.992H3.232v1.992c0,1.416,1.152,2.57,2.569,2.57h61.338
	C68.555,66.938,69.707,65.783,69.707,64.367z M69.707,42.35c-2.084,0.924-4.383,1.445-6.807,1.445
	c-8.795,0-16.027-6.767-16.791-15.366H5.801c-1.417,0-2.569,1.152-2.569,2.568V51.75h66.475V42.35z M68.143,25.483
	c2.474,0,3.861,1.811,3.861,4.26c0,3-1.896,4.567-3.971,4.567c-2.164,0-3.887-1.633-3.908-4.324
	C64.125,27.426,65.691,25.483,68.143,25.483z M66.641,29.897c-0.021,1.502,0.486,2.582,1.457,2.582c0.949,0,1.412-0.971,1.412-2.582
	c0-1.458-0.375-2.583-1.412-2.583C67.084,27.314,66.641,28.463,66.641,29.897z M53.797,24.027c0-2.56,1.566-4.503,4.018-4.503
	c2.472,0,3.861,1.81,3.861,4.261c0,3-1.898,4.567-3.973,4.567C55.518,28.352,53.797,26.72,53.797,24.027z M56.291,23.939
	c0,1.5,0.508,2.583,1.477,2.583c0.951,0,1.414-0.972,1.414-2.583c0-1.457-0.397-2.583-1.434-2.583
	C56.756,21.356,56.291,22.503,56.291,23.939z M59.668,34.356l8.254-14.832h-1.811l-8.232,14.832H59.668z"/>
</svg>
