<?xml version="1.0" encoding="utf-8"?>
<!-- Generator: Adobe Illustrator 15.0.2, SVG Export Plug-In . SVG Version: 6.00 Build 0)  -->
<!DOCTYPE svg PUBLIC "-//W3C//DTD SVG 1.1//EN" "http://www.w3.org/Graphics/SVG/1.1/DTD/svg11.dtd">
<svg version="1.1" id="Слой_1" xmlns="http://www.w3.org/2000/svg" xmlns:xlink="http://www.w3.org/1999/xlink" x="0px" y="0px"
	 width="80px" height="80px" viewBox="0 0 80 80" enable-background="new 0 0 80 80" xml:space="preserve">
<path fill="#0AA6D3" d="M68.869,19.792l0.003-0.003L50.996,0.707L50.992,0.71c-0.273-0.292-0.66-0.478-1.092-0.478H12.223
	c-0.828,0-1.5,0.672-1.5,1.5v76.536c0,0.828,0.672,1.5,1.5,1.5h55.554c0.828,0,1.5-0.672,1.5-1.5V20.815
	C69.277,20.418,69.12,20.061,68.869,19.792z M64.316,19.315H51.4V5.527L64.316,19.315z M66.277,76.768H13.723V3.232h34.679v17.583
	c0,0.828,0.672,1.5,1.5,1.5h16.375V76.768L66.277,76.768z M60.061,29.979H19.063c-0.828,0-1.5-0.672-1.5-1.5s0.672-1.5,1.5-1.5
	h40.998c0.828,0,1.5,0.672,1.5,1.5S60.889,29.979,60.061,29.979z M60.061,36.536H19.063c-0.828,0-1.5-0.672-1.5-1.5
	s0.672-1.5,1.5-1.5h40.998c0.828,0,1.5,0.672,1.5,1.5S60.889,36.536,60.061,36.536z M60.061,43.092H19.063
	c-0.828,0-1.5-0.672-1.5-1.5s0.672-1.5,1.5-1.5h40.998c0.828,0,1.5,0.672,1.5,1.5S60.889,43.092,60.061,43.092z M60.061,49.65
	H19.063c-0.828,0-1.5-0.672-1.5-1.5s0.672-1.5,1.5-1.5h40.998c0.828,0,1.5,0.672,1.5,1.5S60.889,49.65,60.061,49.65z M60.061,56.205
	H19.063c-0.828,0-1.5-0.672-1.5-1.5s0.672-1.5,1.5-1.5h40.998c0.828,0,1.5,0.672,1.5,1.5S60.889,56.205,60.061,56.205z
	 M54.738,71.674c-3.494,0-6.338-2.842-6.338-6.338c0-3.494,2.844-6.338,6.338-6.338c3.496,0,6.339,2.844,6.339,6.338
	C61.077,68.832,58.234,71.674,54.738,71.674z M54.738,61.998c-1.84,0-3.338,1.498-3.338,3.338c0,1.842,1.498,3.338,3.338,3.338
	c1.842,0,3.339-1.496,3.339-3.338C58.077,63.496,56.58,61.998,54.738,61.998z"/>
</svg>
