<?xml version="1.0" encoding="utf-8"?>
<!-- Generator: Adobe Illustrator 15.0.2, SVG Export Plug-In . SVG Version: 6.00 Build 0)  -->
<!DOCTYPE svg PUBLIC "-//W3C//DTD SVG 1.1//EN" "http://www.w3.org/Graphics/SVG/1.1/DTD/svg11.dtd">
<svg version="1.1" id="Слой_1" xmlns="http://www.w3.org/2000/svg" xmlns:xlink="http://www.w3.org/1999/xlink" x="0px" y="0px"
	 width="80px" height="80px" viewBox="0 0 80 80" enable-background="new 0 0 80 80" xml:space="preserve">
<g>
	<ellipse fill="#0AA6D3" cx="17.555" cy="60.137" rx="0.605" ry="0.589"/>
	<ellipse fill="#0AA6D3" cx="17.555" cy="63.576" rx="0.605" ry="0.589"/>
	<path fill="#0AA6D3" d="M76.889,47.534c-0.289,0-0.611,0.067-0.951,0.194L55.479,45.49V12.558c0-0.319-0.158-0.618-0.42-0.799
		c-0.07-0.049-0.146-0.086-0.228-0.114l0.038-0.211l-5.081-0.906c-0.171-0.03-0.349-0.014-0.513,0.046l-14.42,5.413l0.03,0.08
		c-0.146,0.03-0.287,0.092-0.408,0.186c-0.236,0.184-0.374,0.466-0.374,0.765V34.56c-0.066,0.037-0.133,0.061-0.201,0.104
		l-0.12,0.042L16.984,39.84c-0.093,0.028-0.182,0.07-0.262,0.125c-0.818,0.557-1.646,1.614-1.646,2.567l0.039,6.188
		c-0.372-0.676-0.841-1.021-1.394-1.021c-0.204,0-0.409,0.053-0.592,0.153c-0.287,0.155-0.772,0.262-1.208,0.262
		c-0.326,0-0.498-0.055-0.492-0.047c-0.21-0.215-0.488-0.334-0.782-0.334c-0.945,0-1.339,1.127-1.507,1.607
		c-0.052,0.146-1.234,3.596,0.2,4.737c0.117,0.094,0.246,0.174,0.383,0.247l-7.375,2.891c-0.375,0.146-0.604,0.51-0.604,0.903H1.732
		v8.969c0,0.481,0.352,0.89,0.828,0.96l9.609,1.426c0.047,0.008,0.095,0.012,0.142,0.012c0.135,0,0.269-0.028,0.393-0.084
		l10.845-4.785c0.347-0.153,0.572-0.494,0.578-0.874l0.021-1.447l33.563,5.694c0.027,0.307,0.211,0.623,0.467,0.787
		c0.273,0.179,0.715,0.246,1.131,0.246c0.299,0,0.584-0.034,0.787-0.086c0.352-0.063,0.594-0.287,0.84-0.532
		c0.17-0.171,0.428-0.427,0.649-0.529L76.048,60.4c0.077,0,0.185,0.027,0.288,0.054c0.141,0.035,0.299,0.075,0.479,0.075
		c0.619,0,1.086-0.469,1.086-1.057l0.367-10.685C78.268,48.166,77.793,47.534,76.889,47.534z M49.71,12.486l1.524,0.272
		l-11.626,4.396l-1.4-0.351L49.71,12.486z M53.536,13.963v31.314l-5.116-0.561l-0.234-28.731L53.536,13.963z M29.919,50.066
		c1.158-0.541,2.162-1.279,2.901-2.119c0.406,0.104,0.846,0.166,1.313,0.166l0,0c1.076,0,2.232-0.274,3.345-0.795
		c0.896-0.418,1.689-0.967,2.324-1.59l7.614,0.832l-14.041,5.104l-5.536-0.908C28.532,50.611,29.232,50.389,29.919,50.066z
		 M27.119,48.916c-0.211-0.139-0.404-0.256-0.589-0.366c-0.339-0.208-0.615-0.382-0.831-0.53c-0.214-0.166-0.38-0.235-0.603-0.49
		c-0.16-0.133-0.324-0.391-0.502-0.747c0.475-0.794,1.422-1.662,2.731-2.273c0.948-0.442,1.956-0.688,2.839-0.688
		c0.342,0,0.649,0.039,0.918,0.105c0.083,0.236,0.25,0.436,0.477,0.549c0.216,0.108,0.364,0.246,0.439,0.405
		c0.155,0.333,0.034,0.834-0.33,1.373c-0.023,0.034-0.039,0.071-0.058,0.106c-0.558,0.752-1.463,1.457-2.514,1.947
		C28.445,48.611,27.768,48.814,27.119,48.916z M41.079,41.506c-0.113-0.24-0.267-0.456-0.44-0.65V18.84l5.61-2.122l0.228,27.788
		l-5.412-0.593C41.4,43.068,41.415,42.227,41.079,41.506z M36.045,18.263l2.651,0.664v20.908c-0.324-0.063-0.668-0.1-1.035-0.1
		c-0.376,0-0.763,0.045-1.153,0.111l0.021-4.207c0-0.434-0.182-0.812-0.484-1.064V18.263z M35.132,42.291
		c0.847-0.396,1.744-0.614,2.529-0.614c0.835,0,1.471,0.249,1.658,0.651c0.159,0.34,0.031,0.852-0.349,1.402
		c-0.488,0.703-1.331,1.371-2.313,1.828c-0.845,0.396-1.74,0.612-2.523,0.612c-0.079,0-0.155-0.003-0.23-0.008
		c0.294-0.841,0.284-1.661-0.055-2.388c-0.078-0.168-0.175-0.322-0.282-0.469C34.009,42.918,34.541,42.564,35.132,42.291z
		 M18.994,42.025l15.4-5.478l0.188-0.057l-0.02,3.936c-0.084,0.037-0.17,0.064-0.254,0.104c-0.912,0.427-1.718,0.986-2.358,1.627
		c-0.523-0.184-1.125-0.279-1.786-0.279c-1.177,0-2.442,0.301-3.66,0.87c-2.28,1.063-3.808,2.797-4.126,4.451l-2.955,1.243
		c-0.475,0.168-0.858,0.486-1.09,0.859l-0.045-6.369C18.311,42.781,18.576,42.344,18.994,42.025z M23.342,50.02l-1.909-0.313
		l1.229-0.517C22.833,49.506,23.063,49.783,23.342,50.02z M10.979,49.943c0.326,0.088,0.66,0.113,0.941,0.113
		c0.001,0,0.001,0,0.001,0c0.54,0,1.096-0.093,1.578-0.257c0.336,0.718,0.643,2.276,0.558,2.861
		c-0.318,0.142-0.898,0.269-1.646,0.269c-0.922,0-1.554-0.187-1.798-0.326C10.462,52.146,10.698,50.751,10.979,49.943z
		 M12.932,54.854V55.4c0,0.139-0.112,0.25-0.251,0.25h-0.737c-0.139,0-0.251-0.111-0.251-0.25v-0.563
		c0.288,0.023,0.543,0.033,0.719,0.033C12.545,54.871,12.728,54.866,12.932,54.854z M11.341,67.391l-7.667-1.137v-7.006l7.667,1.137
		V67.391z M12.198,58.549l-5.749-0.854L9.96,56.32c0.35,0.748,1.104,1.271,1.983,1.271h0.737c1.209,0,2.192-0.983,2.192-2.192v-0.76
		l4.917,0.935L12.198,58.549z M22.195,63.093l-8.912,3.935v-2.344l8.943-3.679L22.195,63.093z M22.258,58.893l-8.975,3.69v-2.374
		l9.008-3.529L22.258,58.893z M20.054,51.885c-0.03-0.123-0.049-0.283-0.06-0.449l12.18,2v0.438L20.054,51.885z M57.701,66.021
		l-33.523-5.688l0.072-4.81l-0.046-0.002c0.034-0.115,0.054-0.236,0.042-0.362c-0.027-0.284-0.183-0.524-0.402-0.687l8.33,1.366
		v2.101c0,0.479,0.352,0.889,0.826,0.959c0.64,0.097,6.316,0.922,8.404,0.278c1.603-0.493,3.41,0.025,3.645,0.38
		c0.456,0.995,1.84,1.602,2.934,1.741c0.957,0.123,1.729-0.097,2.188-0.621c0.555-0.315,2.881-0.067,3.328,0.361
		c1.121,1.149,2.462,1.793,3.723,1.793c0.096,0,0.191-0.004,0.287-0.013c0.067-0.004,0.127-0.024,0.193-0.033V66.021z
		 M59.482,55.057c-0.822,0.383-1.781,1.159-1.781,2.086v3.662c-0.098,0.043-0.215,0.07-0.348,0.08
		c-0.58,0.045-1.533-0.244-2.465-1.201c-0.863-0.884-2.879-1.132-4.021-1.08c-1.008,0.045-1.725,0.301-2.131,0.762
		c-0.411,0.164-1.711-0.25-1.924-0.615c-0.736-1.613-3.819-2.093-5.98-1.428c-1.114,0.345-4.416,0.074-6.718-0.227v-3.633
		l17.67-6.423l20.313,2.224L59.482,55.057z M75.992,58.462c-0.285,0.007-0.561,0.071-0.848,0.205l-14.299,7.406v-8.784
		c0.09-0.105,0.315-0.313,0.672-0.479l14.775-7.119L75.992,58.462z"/>
	<ellipse fill="#0AA6D3" cx="45.648" cy="35.553" rx="0.605" ry="0.589"/>
	<ellipse fill="#0AA6D3" cx="49.018" cy="34.475" rx="0.606" ry="0.589"/>
</g>
</svg>
