<?xml version="1.0" encoding="utf-8"?>
<!-- Generator: Adobe Illustrator 15.0.2, SVG Export Plug-In . SVG Version: 6.00 Build 0)  -->
<!DOCTYPE svg PUBLIC "-//W3C//DTD SVG 1.1//EN" "http://www.w3.org/Graphics/SVG/1.1/DTD/svg11.dtd">
<svg version="1.1" id="Слой_1" xmlns="http://www.w3.org/2000/svg" xmlns:xlink="http://www.w3.org/1999/xlink" x="0px" y="0px"
	 width="80px" height="80px" viewBox="0 0 80 80" enable-background="new 0 0 80 80" xml:space="preserve">
<path fill="#0AA6D3" d="M31.512,52.328H24.42c-0.828,0-1.5-0.672-1.5-1.5V34.824c0-0.828,0.672-1.5,1.5-1.5h7.092
	c0.828,0,1.5,0.672,1.5,1.5v16.004C33.012,51.656,32.34,52.328,31.512,52.328z M25.92,49.328h4.092V36.324H25.92V49.328z
	 M44.047,52.855c-2.941,0-5.508-0.275-7.041-0.44c-0.356-0.039-0.658-0.071-0.898-0.093c-2.4-0.219-3.771-1.312-3.92-1.436
	c-0.342-0.283-0.539-0.705-0.539-1.15V34.824c0-0.828,0.672-1.5,1.5-1.5h0.157c1.7-2.278,3.653-4.819,4.525-5.671
	c0.377-1.036,0.729-5.504,0.555-7.23c-0.046-0.448,0.113-0.893,0.432-1.211c0.498-0.498,1.165-0.761,1.929-0.761
	c1.903,0,4.201,1.683,5.584,4.093c1.392,2.423,1.664,5.19,0.829,7.87c0.283-0.026,0.563-0.054,0.84-0.08
	c1.076-0.104,2.093-0.203,3.029-0.203c1.707,0,2.959,0.329,4.056,1.068c2.274,1.533,2.36,8.723,1.422,13.203
	c-0.976,4.654-2.983,7.388-5.812,7.9C48.684,52.67,46.445,52.855,44.047,52.855z M34.649,48.891
	c0.383,0.176,0.964,0.375,1.729,0.443c0.253,0.023,0.572,0.059,0.948,0.098c1.473,0.159,3.938,0.424,6.719,0.424
	c2.221,0,4.275-0.168,6.113-0.502c1.381-0.252,2.27-1.929,2.771-3.291c1.702-4.614,1.207-11.306,0.409-12.419
	c-0.565-0.358-1.265-0.512-2.312-0.512c-0.791,0-1.694,0.087-2.739,0.188c-1.019,0.1-2.171,0.211-3.444,0.26
	c-0.539,0.03-1.062-0.258-1.343-0.728c-0.282-0.47-0.285-1.056-0.009-1.528c1.938-3.317,0.979-5.988,0.234-7.285
	c-0.707-1.234-1.656-2.028-2.334-2.379c-0.006,2.48-0.201,7.186-1.522,8.181c-0.439,0.393-2.743,3.363-4.607,5.878
	c-0.161,0.217-0.375,0.383-0.616,0.486v12.687H34.649z M40,69.283c-16.146,0-29.283-13.137-29.283-29.283
	c0-16.146,13.136-29.283,29.283-29.283c16.146,0,29.284,13.137,29.284,29.283C69.284,56.146,56.146,69.283,40,69.283z M40,13.717
	c-14.492,0-26.283,11.791-26.283,26.283S25.507,66.283,40,66.283S66.284,54.492,66.284,40S54.492,13.717,40,13.717z M43.584,80.163
	c-1.199,0-2.4-0.394-3.584-1.172c-1.182,0.778-2.383,1.172-3.581,1.172c-1.126,0-2.711-0.364-4.276-1.946
	c-2.932,1.204-5.632,0.346-7.329-2.261c-3.078,0.614-5.491-0.735-6.632-3.592c-0.021,0-0.04,0-0.06,0
	c-3.081,0-5.15-1.755-5.72-4.763c-1.512-0.277-2.696-0.928-3.53-1.938c-0.836-1.014-1.25-2.301-1.236-3.842
	c-1.433-0.563-2.475-1.43-3.104-2.584c-0.636-1.164-0.799-2.522-0.489-4.051c-1.304-0.84-2.164-1.902-2.565-3.172
	c-0.407-1.289-0.306-2.684,0.303-4.156c-1.12-1.104-1.761-2.34-1.91-3.689c-0.154-1.393,0.229-2.79,1.139-4.171
	c-0.911-1.381-1.293-2.781-1.139-4.174c0.149-1.349,0.791-2.585,1.91-3.687c-0.608-1.477-0.71-2.872-0.302-4.162
	c0.401-1.267,1.262-2.328,2.564-3.167c-0.31-1.527-0.146-2.885,0.488-4.049c0.631-1.155,1.672-2.022,3.105-2.587
	c-0.014-1.541,0.4-2.829,1.237-3.842c0.835-1.01,2.019-1.658,3.529-1.936c0.569-3.007,2.637-4.763,5.716-4.763
	c0.021,0,0.042,0,0.063,0.001c1.143-2.859,3.561-4.208,6.632-3.594c1.698-2.603,4.396-3.462,7.329-2.261
	c1.564-1.581,3.148-1.944,4.273-1.944c1.2,0,2.401,0.394,3.584,1.173c1.185-0.779,2.388-1.173,3.586-1.173
	c1.125,0,2.71,0.363,4.274,1.944c2.931-1.202,5.629-0.343,7.326,2.261c3.078-0.618,5.49,0.735,6.633,3.594
	c0.021-0.001,0.043-0.001,0.063-0.001c3.079,0,5.146,1.755,5.716,4.763c1.512,0.277,2.695,0.926,3.53,1.936
	c0.837,1.013,1.251,2.301,1.237,3.842c1.433,0.564,2.473,1.431,3.104,2.586c0.635,1.164,0.799,2.522,0.49,4.05
	c1.303,0.84,2.162,1.901,2.563,3.168c0.41,1.29,0.308,2.686-0.301,4.161c1.118,1.102,1.76,2.338,1.909,3.687
	c0.154,1.393-0.229,2.792-1.14,4.174c0.91,1.381,1.294,2.78,1.14,4.172c-0.149,1.349-0.791,2.585-1.909,3.688
	c0.607,1.473,0.711,2.865,0.303,4.156c-0.4,1.269-1.262,2.332-2.564,3.172c0.311,1.528,0.146,2.888-0.49,4.052
	c-0.63,1.153-1.671,2.02-3.103,2.583c0.014,1.541-0.4,2.828-1.236,3.842c-0.834,1.01-2.021,1.659-3.53,1.938
	c-0.57,3.008-2.639,4.763-5.721,4.763c-0.02,0-0.039,0-0.061,0c-1.143,2.855-3.56,4.213-6.631,3.592
	c-1.699,2.606-4.397,3.465-7.328,2.261C46.295,79.799,44.709,80.163,43.584,80.163z M40,75.619c0.344,0,0.688,0.117,0.967,0.354
	c2.034,1.715,3.729,1.584,5.32-0.517c0.455-0.599,1.285-0.769,1.938-0.396c0.819,0.467,1.563,0.703,2.207,0.703
	c0.401,0,1.625,0,2.66-2.199c0.327-0.692,1.125-1.025,1.846-0.78c0.623,0.215,1.19,0.323,1.689,0.323
	c0.864,0,2.081-0.278,2.67-2.685c0.184-0.75,0.896-1.239,1.671-1.128c0.321,0.046,0.628,0.069,0.912,0.069
	c1.269,0,2.738-0.362,2.87-3.188c0.035-0.772,0.654-1.393,1.428-1.429c1.256-0.061,2.145-0.395,2.641-0.995
	c0.498-0.603,0.658-1.539,0.479-2.787c-0.11-0.765,0.378-1.487,1.128-1.671c1.223-0.3,2.034-0.802,2.412-1.493
	c0.381-0.696,0.363-1.661-0.052-2.866c-0.248-0.725,0.088-1.52,0.778-1.846c1.149-0.541,1.855-1.207,2.101-1.979
	c0.247-0.783,0.045-1.754-0.601-2.887c-0.373-0.654-0.205-1.482,0.396-1.938c1.028-0.78,1.599-1.603,1.69-2.445
	c0.097-0.868-0.301-1.835-1.178-2.874c-0.472-0.559-0.472-1.377,0-1.936c0.879-1.039,1.273-2.007,1.178-2.875
	c-0.094-0.843-0.662-1.664-1.689-2.443c-0.6-0.454-0.77-1.283-0.396-1.938c0.646-1.136,0.85-2.108,0.602-2.892
	c-0.244-0.771-0.95-1.435-2.1-1.975c-0.691-0.326-1.027-1.121-0.779-1.845c0.415-1.206,0.434-2.171,0.052-2.868
	C72.461,21.503,71.65,21,70.426,20.7c-0.75-0.185-1.236-0.907-1.127-1.671c0.18-1.247,0.02-2.185-0.479-2.787
	c-0.498-0.601-1.385-0.934-2.641-0.992c-0.772-0.035-1.394-0.654-1.429-1.429c-0.132-2.826-1.601-3.188-2.866-3.188
	c-0.285,0-0.593,0.024-0.914,0.07c-0.777,0.111-1.488-0.378-1.673-1.128c-0.589-2.406-1.806-2.685-2.67-2.685
	c-0.498,0-1.065,0.108-1.688,0.322c-0.726,0.251-1.52-0.086-1.847-0.779c-1.034-2.199-2.26-2.199-2.661-2.199
	c-0.646,0-1.388,0.235-2.205,0.702c-0.656,0.372-1.482,0.201-1.938-0.396C44.695,2.438,43,2.314,40.968,4.026
	c-0.559,0.471-1.376,0.471-1.935,0c-2.027-1.715-3.725-1.587-5.316,0.513c-0.455,0.6-1.284,0.77-1.938,0.397
	c-0.818-0.466-1.561-0.702-2.206-0.702c-0.403,0-1.628,0-2.662,2.199c-0.327,0.691-1.12,1.03-1.846,0.779
	c-0.623-0.214-1.191-0.322-1.69-0.322c-0.863,0-2.08,0.278-2.669,2.685c-0.184,0.75-0.897,1.239-1.672,1.128
	c-0.322-0.046-0.63-0.07-0.915-0.07c-1.266,0-2.735,0.362-2.867,3.189c-0.036,0.773-0.655,1.393-1.429,1.428
	c-1.254,0.059-2.141,0.392-2.637,0.992c-0.498,0.603-0.659,1.54-0.479,2.787c0.11,0.764-0.377,1.486-1.127,1.671
	c-1.225,0.3-2.037,0.804-2.415,1.496c-0.38,0.696-0.362,1.661,0.053,2.866c0.25,0.725-0.087,1.52-0.78,1.846
	c-1.148,0.54-1.854,1.204-2.099,1.974c-0.248,0.783-0.046,1.756,0.601,2.893c0.372,0.654,0.202,1.483-0.397,1.938
	c-1.028,0.779-1.597,1.602-1.69,2.443c-0.097,0.869,0.3,1.836,1.177,2.875c0.472,0.559,0.472,1.377,0,1.936
	c-0.877,1.038-1.272,2.006-1.177,2.873c0.094,0.844,0.662,1.666,1.691,2.446c0.6,0.455,0.769,1.284,0.396,1.938
	c-0.646,1.133-0.848,2.104-0.601,2.887c0.244,0.771,0.951,1.438,2.101,1.979c0.693,0.326,1.029,1.122,0.779,1.846
	c-0.415,1.205-0.433,2.17-0.053,2.865c0.378,0.692,1.19,1.194,2.414,1.494c0.75,0.184,1.238,0.906,1.128,1.671
	c-0.18,1.248-0.019,2.187,0.479,2.787s1.385,0.937,2.639,0.995c0.773,0.036,1.392,0.654,1.428,1.428
	c0.133,2.825,1.604,3.188,2.871,3.188c0.284,0,0.591-0.023,0.912-0.069c0.774-0.111,1.488,0.378,1.671,1.128
	c0.589,2.405,1.806,2.685,2.67,2.685c0.498,0,1.067-0.108,1.69-0.323c0.725-0.245,1.52,0.088,1.845,0.78
	c1.03,2.191,2.25,2.199,2.656,2.199c0.001,0,0.003,0,0.004,0c0.646,0,1.389-0.236,2.208-0.703c0.653-0.373,1.482-0.203,1.938,0.396
	c1.591,2.098,3.288,2.23,5.316,0.516C39.311,75.736,39.656,75.619,40,75.619z"/>
</svg>
