<?xml version="1.0" encoding="utf-8"?>
<!-- Generator: Adobe Illustrator 15.0.2, SVG Export Plug-In . SVG Version: 6.00 Build 0)  -->
<!DOCTYPE svg PUBLIC "-//W3C//DTD SVG 1.1//EN" "http://www.w3.org/Graphics/SVG/1.1/DTD/svg11.dtd">
<svg version="1.1" id="Слой_1" xmlns="http://www.w3.org/2000/svg" xmlns:xlink="http://www.w3.org/1999/xlink" x="0px" y="0px"
	 width="80px" height="80px" viewBox="0 0 80 80" enable-background="new 0 0 80 80" xml:space="preserve">
<path fill="#0AA6D3" d="M60.844,21.243c0,3.151-1.994,4.797-4.172,4.797c-2.295,0-4.104-1.713-4.104-4.542
	c0-2.688,1.645-4.728,4.221-4.728C59.385,16.77,60.844,18.669,60.844,21.243z M55.188,21.406c0,1.575,0.533,2.713,1.554,2.713
	c0.995,0,1.483-1.021,1.483-2.713c0-1.529-0.42-2.713-1.506-2.713C55.676,18.693,55.188,19.899,55.188,21.406z M56.857,32.345
	l8.645-15.575h1.9l-8.67,15.575H56.857z M71.689,27.5c0,3.151-1.992,4.797-4.17,4.797c-2.271,0-4.08-1.715-4.104-4.542
	c0-2.689,1.646-4.729,4.219-4.729C70.23,23.027,71.689,24.927,71.689,27.5z M66.057,27.663c-0.021,1.577,0.514,2.712,1.531,2.712
	c0.996,0,1.482-1.02,1.482-2.712c0-1.53-0.396-2.712-1.482-2.712C66.523,24.951,66.057,26.158,66.057,27.663z M62.131,6.907
	c-9.098,0-16.607,6.925-17.539,15.779h-1.355c0.236-0.27,0.38-0.612,0.38-0.981V8.939c0-0.536-0.287-1.031-0.75-1.299
	c-0.466-0.268-1.035-0.268-1.5,0L30.48,13.925L19.597,7.64c-0.465-0.268-1.035-0.268-1.5,0c-0.464,0.268-0.75,0.763-0.75,1.299
	v12.767c0,0.368,0.143,0.711,0.377,0.98H1.732c-0.828,0-1.5,0.672-1.5,1.5v7.295c0,0.828,0.672,1.5,1.5,1.5h0.372v38.613
	c0,0.828,0.672,1.5,1.5,1.5h20.058h13.64h20.053c0.828,0,1.5-0.672,1.5-1.5V41.867c1.063,0.199,2.154,0.316,3.275,0.316
	c9.725,0,17.637-7.914,17.637-17.639S71.855,6.907,62.131,6.907z M40.615,11.538v7.569l-6.556-3.784L40.615,11.538z M20.347,11.538
	l6.556,3.786l-6.556,3.784V11.538z M30.482,16.721l10.333,5.965H20.149L30.482,16.721z M22.162,70.094H5.104V32.981h17.058V70.094z
	 M35.801,70.094h-10.64V32.981h10.64V70.094z M23.662,29.981H3.604H3.232v-4.295h41.297c0.01,0.146,0.029,0.291,0.043,0.437
	c0.012,0.134,0.023,0.268,0.037,0.4c0.055,0.48,0.125,0.958,0.219,1.431c0.031,0.157,0.07,0.311,0.105,0.467
	c0.073,0.322,0.155,0.643,0.248,0.962c0.059,0.199,0.11,0.399,0.176,0.597c0,0,0,0.001,0,0.002h-8.057L23.662,29.981L23.662,29.981z
	 M55.855,70.094H38.801V32.981h7.844c0.43,0.784,0.93,1.522,1.471,2.229c0.107,0.143,0.209,0.291,0.32,0.43
	c0.168,0.206,0.348,0.399,0.522,0.597c0.194,0.221,0.388,0.442,0.592,0.652c0.147,0.149,0.304,0.289,0.455,0.434
	c0.254,0.242,0.511,0.479,0.777,0.707c0.133,0.112,0.271,0.219,0.407,0.327c0.306,0.241,0.613,0.476,0.933,0.696
	c0.123,0.085,0.246,0.166,0.371,0.248c0.348,0.229,0.702,0.445,1.067,0.648c0.111,0.063,0.226,0.125,0.338,0.185
	c0.39,0.206,0.785,0.396,1.188,0.574c0.104,0.045,0.211,0.092,0.315,0.137c0.152,0.063,0.298,0.138,0.451,0.195v29.054H55.855z
	 M62.131,39.183c-2.906,0-5.609-0.861-7.889-2.326c-0.113-0.073-0.23-0.139-0.34-0.215c-0.23-0.156-0.449-0.33-0.67-0.499
	c-0.174-0.135-0.353-0.265-0.521-0.407s-0.323-0.294-0.485-0.442c-0.207-0.192-0.416-0.385-0.611-0.589
	c-0.119-0.123-0.232-0.253-0.348-0.381c-0.226-0.251-0.445-0.505-0.652-0.771c-0.08-0.102-0.156-0.206-0.232-0.311
	c-0.229-0.309-0.447-0.626-0.652-0.953c-0.049-0.078-0.096-0.156-0.143-0.235c-0.221-0.367-0.426-0.745-0.615-1.134
	c-0.027-0.057-0.055-0.113-0.082-0.171c-0.205-0.436-0.385-0.877-0.545-1.324c-0.02-0.057-0.043-0.111-0.061-0.167
	c-0.162-0.467-0.295-0.941-0.406-1.422c-0.01-0.037-0.021-0.073-0.029-0.109c-0.233-1.053-0.354-2.14-0.352-3.265
	c0.006-0.088,0.012-0.175,0.012-0.264c0-0.002,0-0.005,0-0.007c0.191-7.907,6.668-14.284,14.621-14.284
	c8.07,0,14.637,6.566,14.637,14.639C76.768,32.617,70.201,39.183,62.131,39.183z"/>
</svg>
