<?xml version="1.0" encoding="utf-8"?>
<!-- Generator: Adobe Illustrator 15.0.2, SVG Export Plug-In . SVG Version: 6.00 Build 0)  -->
<!DOCTYPE svg PUBLIC "-//W3C//DTD SVG 1.1//EN" "http://www.w3.org/Graphics/SVG/1.1/DTD/svg11.dtd">
<svg version="1.1" id="Слой_1" xmlns="http://www.w3.org/2000/svg" xmlns:xlink="http://www.w3.org/1999/xlink" x="0px" y="0px"
	 width="80px" height="80px" viewBox="0 0 80 80" enable-background="new 0 0 80 80" xml:space="preserve">
<path fill="#0AA6D3" d="M64.281,10.603h-9.146V6.068c0-0.828-0.672-1.5-1.5-1.5h-7.162c-0.668-2.573-3.01-4.479-5.789-4.479
	c-2.779,0-5.122,1.906-5.789,4.479h-7.162c-0.829,0-1.5,0.672-1.5,1.5v4.534H16.102c-3.627,0-6.578,2.951-6.578,6.578v55.866
	c0,3.627,2.951,6.578,6.578,6.578h48.179c3.626,0,6.576-2.951,6.576-6.578V17.181C70.857,13.554,67.907,10.603,64.281,10.603z
	 M29.233,7.568h6.972c0.829,0,1.5-0.672,1.5-1.5c0-1.643,1.336-2.979,2.979-2.979c1.644,0,2.979,1.337,2.979,2.979
	c0,0.828,0.672,1.5,1.5,1.5h6.974v8.49H29.233V7.568z M67.857,73.047c0,1.973-1.604,3.578-3.576,3.578H16.102
	c-1.973,0-3.578-1.605-3.578-3.578V17.181c0-1.973,1.605-3.578,3.578-3.578h10.131v3.956c0,0.828,0.671,1.5,1.5,1.5h25.902
	c0.828,0,1.5-0.672,1.5-1.5v-3.956h9.146c1.972,0,3.576,1.605,3.576,3.578V73.047z M40.684,8.786c-1.74,0-3.155-1.415-3.155-3.155
	c0-1.739,1.415-3.154,3.155-3.154c1.74,0,3.155,1.415,3.155,3.154C43.839,7.371,42.424,8.786,40.684,8.786z M40.684,5.477
	c-0.088,0-0.154,0.067-0.154,0.154c0,0.172,0.311,0.172,0.311,0C40.839,5.544,40.771,5.477,40.684,5.477z M28.745,36.757h-11.02
	c-0.829,0-1.5-0.672-1.5-1.5V24.235c0-0.828,0.671-1.5,1.5-1.5h10.004c0.829,0,1.5,0.672,1.5,1.5c0,0.828-0.671,1.5-1.5,1.5h-8.504
	v8.021h8.02v-2.813c0-0.828,0.671-1.5,1.5-1.5s1.5,0.672,1.5,1.5v4.313C30.245,36.085,29.574,36.757,28.745,36.757z M61.441,27.834
	H35.728c-0.829,0-1.5-0.672-1.5-1.5s0.671-1.5,1.5-1.5h25.713c0.828,0,1.5,0.672,1.5,1.5S62.27,27.834,61.441,27.834z M52.52,31.455
	H35.728c-0.829,0-1.5-0.672-1.5-1.5s0.671-1.5,1.5-1.5H52.52c0.83,0,1.5,0.672,1.5,1.5S53.35,31.455,52.52,31.455z M52.52,35.443
	H35.728c-0.829,0-1.5-0.672-1.5-1.5c0-0.828,0.671-1.5,1.5-1.5H52.52c0.83,0,1.5,0.672,1.5,1.5
	C54.02,34.771,53.35,35.443,52.52,35.443z M24.063,33.752c-0.026,0-0.052-0.001-0.078-0.002c-0.485-0.025-0.928-0.284-1.188-0.694
	l-2.749-4.329c-0.444-0.699-0.237-1.626,0.462-2.07c0.7-0.443,1.626-0.236,2.07,0.463l1.617,2.547l5.545-7.004
	c0.514-0.648,1.458-0.76,2.107-0.244c0.649,0.514,0.759,1.457,0.245,2.107l-6.856,8.658C24.953,33.543,24.52,33.752,24.063,33.752z
	 M28.745,52.443h-11.02c-0.829,0-1.5-0.672-1.5-1.5v-11.02c0-0.828,0.671-1.5,1.5-1.5h10.004c0.829,0,1.5,0.672,1.5,1.5
	c0,0.828-0.671,1.5-1.5,1.5h-8.504v8.02h8.02v-2.812c0-0.827,0.671-1.5,1.5-1.5s1.5,0.673,1.5,1.5v4.312
	C30.245,51.771,29.574,52.443,28.745,52.443z M61.441,43.521H35.728c-0.829,0-1.5-0.672-1.5-1.5s0.671-1.5,1.5-1.5h25.713
	c0.828,0,1.5,0.672,1.5,1.5S62.27,43.521,61.441,43.521z M52.52,47.143H35.728c-0.829,0-1.5-0.672-1.5-1.5s0.671-1.5,1.5-1.5H52.52
	c0.83,0,1.5,0.672,1.5,1.5S53.35,47.143,52.52,47.143z M52.52,51.132H35.728c-0.829,0-1.5-0.672-1.5-1.5c0-0.827,0.671-1.5,1.5-1.5
	H52.52c0.83,0,1.5,0.673,1.5,1.5C54.02,50.46,53.35,51.132,52.52,51.132z M24.063,49.439c-0.026,0-0.052,0-0.078-0.002
	c-0.485-0.024-0.928-0.283-1.188-0.693l-2.749-4.329c-0.444-0.699-0.237-1.626,0.462-2.07c0.7-0.442,1.626-0.235,2.07,0.464
	l1.617,2.547l5.545-7.003c0.514-0.647,1.458-0.76,2.107-0.244c0.649,0.515,0.759,1.458,0.245,2.107l-6.856,8.657
	C24.953,49.232,24.52,49.439,24.063,49.439z M28.745,68.209h-11.02c-0.829,0-1.5-0.672-1.5-1.5v-11.02c0-0.828,0.671-1.5,1.5-1.5
	h10.004c0.829,0,1.5,0.672,1.5,1.5s-0.671,1.5-1.5,1.5h-8.504v8.02h8.02v-2.811c0-0.828,0.671-1.5,1.5-1.5s1.5,0.672,1.5,1.5v4.311
	C30.245,67.537,29.574,68.209,28.745,68.209z M61.441,59.289H35.728c-0.829,0-1.5-0.672-1.5-1.5s0.671-1.5,1.5-1.5h25.713
	c0.828,0,1.5,0.672,1.5,1.5S62.27,59.289,61.441,59.289z M52.52,62.907H35.728c-0.829,0-1.5-0.673-1.5-1.5
	c0-0.828,0.671-1.5,1.5-1.5H52.52c0.83,0,1.5,0.672,1.5,1.5C54.02,62.234,53.35,62.907,52.52,62.907z M52.52,66.898H35.728
	c-0.829,0-1.5-0.672-1.5-1.5s0.671-1.5,1.5-1.5H52.52c0.83,0,1.5,0.672,1.5,1.5S53.35,66.898,52.52,66.898z M24.063,65.206
	c-0.026,0-0.052-0.001-0.078-0.002c-0.485-0.024-0.928-0.284-1.188-0.694l-2.749-4.33c-0.444-0.699-0.237-1.625,0.463-2.07
	c0.7-0.442,1.626-0.234,2.07,0.464l1.617,2.547l5.545-7.003c0.514-0.646,1.458-0.76,2.107-0.244
	c0.649,0.514,0.759,1.457,0.245,2.107l-6.856,8.658C24.953,64.998,24.52,65.206,24.063,65.206z"/>
</svg>
