<?xml version="1.0" encoding="utf-8"?>
<!-- Generator: Adobe Illustrator 15.0.2, SVG Export Plug-In . SVG Version: 6.00 Build 0)  -->
<!DOCTYPE svg PUBLIC "-//W3C//DTD SVG 1.1//EN" "http://www.w3.org/Graphics/SVG/1.1/DTD/svg11.dtd">
<svg version="1.1" id="Слой_1" xmlns="http://www.w3.org/2000/svg" xmlns:xlink="http://www.w3.org/1999/xlink" x="0px" y="0px"
	 width="80px" height="80px" viewBox="0 0 80 80" enable-background="new 0 0 80 80" xml:space="preserve">
<path fill="#0AA6D3" d="M78.268,14.29H1.732c-0.829,0-1.5,0.672-1.5,1.5v48.42c0,0.828,0.671,1.5,1.5,1.5h76.536
	c0.828,0,1.5-0.672,1.5-1.5V15.79C79.768,14.962,79.096,14.29,78.268,14.29z M74.482,17.29L40,52.489L5.517,17.29H74.482z
	 M3.232,62.71V19.245l35.697,36.438c0.281,0.287,0.668,0.449,1.07,0.449c0.404,0,0.79-0.162,1.073-0.449l35.695-36.438V62.71H3.232z
	"/>
</svg>
