<?xml version="1.0" encoding="utf-8"?>
<!-- Generator: Adobe Illustrator 15.0.2, SVG Export Plug-In . SVG Version: 6.00 Build 0)  -->
<!DOCTYPE svg PUBLIC "-//W3C//DTD SVG 1.1//EN" "http://www.w3.org/Graphics/SVG/1.1/DTD/svg11.dtd">
<svg version="1.1" id="Слой_1" xmlns="http://www.w3.org/2000/svg" xmlns:xlink="http://www.w3.org/1999/xlink" x="0px" y="0px"
	 width="80px" height="80px" viewBox="0 0 80 80" enable-background="new 0 0 80 80" xml:space="preserve">
<path fill="#0AA6D3" d="M40,50.338c-12.495,0-22.66-10.165-22.66-22.66C17.34,15.181,27.505,5.014,40,5.014
	c12.496,0,22.662,10.167,22.662,22.664C62.662,40.173,52.496,50.338,40,50.338z M40,8.014c-10.841,0-19.66,8.821-19.66,19.664
	c0,10.841,8.819,19.66,19.66,19.66c10.842,0,19.662-8.819,19.662-19.66C59.662,16.835,50.842,8.014,40,8.014z M39.998,79.768
	c-0.002,0-0.004,0-0.006,0c-0.43-0.002-0.839-0.188-1.122-0.511c-1.087-1.239-26.618-30.589-26.618-51.278
	c0-15.299,12.447-27.746,27.746-27.746c15.302,0,27.75,12.447,27.75,27.746c0,21.18-25.543,50.068-26.631,51.287
	C40.833,79.585,40.426,79.768,39.998,79.768z M39.998,3.232c-13.646,0-24.746,11.101-24.746,24.746
	c0,17.192,19.787,42.019,24.755,47.979c4.981-5.895,24.741-30.38,24.741-47.979C64.748,14.333,53.646,3.232,39.998,3.232z"/>
</svg>
