<?xml version="1.0" encoding="utf-8"?>
<!-- Generator: Adobe Illustrator 15.0.2, SVG Export Plug-In . SVG Version: 6.00 Build 0)  -->
<!DOCTYPE svg PUBLIC "-//W3C//DTD SVG 1.1//EN" "http://www.w3.org/Graphics/SVG/1.1/DTD/svg11.dtd">
<svg version="1.1" id="Слой_1" xmlns="http://www.w3.org/2000/svg" xmlns:xlink="http://www.w3.org/1999/xlink" x="0px" y="0px"
	 width="80px" height="80px" viewBox="0 0 80 80" enable-background="new 0 0 80 80" xml:space="preserve">
<path fill="#0AA6D3" d="M68.68,28.352H15.833c-0.829,0-1.5-0.672-1.5-1.5s0.671-1.5,1.5-1.5H68.68c0.828,0,1.5,0.672,1.5,1.5
	S69.508,28.352,68.68,28.352z M51.846,34.293c0-0.828-0.672-1.5-1.5-1.5H15.833c-0.829,0-1.5,0.672-1.5,1.5s0.671,1.5,1.5,1.5
	h34.513C51.174,35.793,51.846,35.122,51.846,34.293z M51.846,42.492c0-0.828-0.672-1.5-1.5-1.5H15.833c-0.829,0-1.5,0.672-1.5,1.5
	s0.671,1.5,1.5,1.5h34.513C51.174,43.992,51.846,43.32,51.846,42.492z M48.951,73.609c0.41-0.203,0.703-0.582,0.799-1.029
	l2.463-11.537h20.902c3.668,0,6.652-2.984,6.652-6.654V12.886c0-3.669-2.984-6.653-6.652-6.653H6.886
	c-3.669,0-6.653,2.984-6.653,6.653v41.503c0,3.67,2.984,6.653,6.653,6.653h13.788l26.975,12.584
	c0.201,0.094,0.418,0.142,0.636,0.142C48.512,73.768,48.741,73.715,48.951,73.609z M73.115,9.233c2.014,0,3.652,1.639,3.652,3.653
	v41.503c0,2.016-1.64,3.653-3.652,3.653H50.999c-0.708,0-1.319,0.496-1.467,1.188l-2.323,10.881L21.641,58.184
	c-0.199-0.092-0.416-0.141-0.635-0.141H6.886c-2.015,0-3.653-1.639-3.653-3.654V12.886c0-2.015,1.639-3.653,3.653-3.653H73.115z"/>
</svg>
