<?xml version="1.0" encoding="utf-8"?>
<!-- Generator: Adobe Illustrator 15.0.2, SVG Export Plug-In . SVG Version: 6.00 Build 0)  -->
<!DOCTYPE svg PUBLIC "-//W3C//DTD SVG 1.1//EN" "http://www.w3.org/Graphics/SVG/1.1/DTD/svg11.dtd">
<svg version="1.1" id="Слой_1" xmlns="http://www.w3.org/2000/svg" xmlns:xlink="http://www.w3.org/1999/xlink" x="0px" y="0px"
	 width="80px" height="80px" viewBox="0 0 80 80" enable-background="new 0 0 80 80" xml:space="preserve">
<path fill="#10A7D4" d="M68.577,43.322c-0.123,0-0.249-0.016-0.374-0.049c-0.803-0.205-1.286-1.023-1.08-1.825
	c3.02-11.754-4.089-23.773-15.844-26.792c-0.803-0.206-1.285-1.023-1.079-1.826c0.204-0.802,1.021-1.287,1.825-1.08
	c13.356,3.43,21.434,17.087,18.004,30.443C69.855,42.871,69.245,43.322,68.577,43.322z M62.732,41.508
	c1.259-4.895,0.533-9.988-2.039-14.338c-2.571-4.35-6.686-7.439-11.582-8.696c-0.805-0.208-1.619,0.277-1.825,1.08
	c-0.206,0.803,0.276,1.62,1.08,1.826c4.12,1.058,7.582,3.657,9.745,7.318c2.164,3.661,2.773,7.945,1.716,12.065
	c-0.206,0.803,0.276,1.619,1.08,1.825c0.125,0.032,0.251,0.048,0.374,0.048C61.949,42.636,62.561,42.186,62.732,41.508z
	 M55.467,41.773c1.922-7.484-2.604-15.139-10.085-17.06c-0.806-0.207-1.62,0.277-1.825,1.08c-0.207,0.803,0.276,1.62,1.08,1.826
	c5.879,1.511,9.436,7.525,7.924,13.407c-0.205,0.804,0.277,1.621,1.08,1.826c0.125,0.032,0.252,0.049,0.375,0.049
	C54.684,42.9,55.293,42.451,55.467,41.773z M64.359,74.589c1.054-0.67,2.047-1.304,3-1.854c0.719-0.414,0.963-1.329,0.55-2.047
	L56.557,51.011c-0.361-0.626-1.119-0.903-1.801-0.663c-0.029,0.01-3.117,1.09-6.867,1.328c-0.775,0.049-1.5,0.137-2.189,0.221
	c-0.805,0.101-1.565,0.192-2.256,0.192c-1.963,0-4.229-0.606-8.407-7.849l-0.899-1.561c-4.83-8.373-3.498-10.138-1.292-13.063
	c0.418-0.555,0.856-1.137,1.287-1.784c2.081-3.129,4.562-5.262,4.587-5.283c0.55-0.469,0.688-1.265,0.326-1.892L27.693,0.982
	c-0.198-0.345-0.526-0.596-0.91-0.699c-0.385-0.103-0.794-0.049-1.139,0.149c-0.956,0.552-2.004,1.097-3.114,1.674
	c-4.353,2.263-9.285,4.829-11.258,9.249c-5.236,11.737,0.207,28.59,7.048,40.45l0.899,1.56c6.843,11.856,18.71,25.006,31.493,26.347
	c0.36,0.038,0.722,0.057,1.085,0.057C56.232,79.768,60.551,77.016,64.359,74.589z M35.848,21.121
	c-1.014,0.986-2.695,2.766-4.215,5.051c-0.396,0.595-0.8,1.129-1.185,1.639c-2.935,3.891-4.452,6.764,1.09,16.369l0.899,1.56
	c3.932,6.815,6.915,9.351,11.004,9.351c0.875,0,1.724-0.104,2.621-0.214c0.635-0.078,1.301-0.16,2.015-0.205
	c2.737-0.174,5.118-0.737,6.479-1.123l10.018,17.361c-0.596,0.366-1.2,0.752-1.825,1.149c-3.716,2.367-7.921,5.064-11.724,4.67
	c-9.608-1.009-21.073-10.768-29.208-24.862l-0.899-1.56C12.787,36.209,10.076,21.4,14.013,12.578
	c1.545-3.464,5.985-5.772,9.902-7.81c0.66-0.344,1.3-0.676,1.918-1.009L35.848,21.121z"/>
</svg>
