<?xml version="1.0" encoding="utf-8"?>
<!-- Generator: Adobe Illustrator 15.0.2, SVG Export Plug-In . SVG Version: 6.00 Build 0)  -->
<!DOCTYPE svg PUBLIC "-//W3C//DTD SVG 1.1//EN" "http://www.w3.org/Graphics/SVG/1.1/DTD/svg11.dtd">
<svg version="1.1" id="Слой_1" xmlns="http://www.w3.org/2000/svg" xmlns:xlink="http://www.w3.org/1999/xlink" x="0px" y="0px"
	 width="80px" height="80px" viewBox="0 0 80 80" enable-background="new 0 0 80 80" xml:space="preserve">
<path fill="#0AA6D3" d="M28.978,39.497c-10.826,0-19.634-8.808-19.634-19.634c0-10.824,8.808-19.631,19.634-19.631
	c10.823,0,19.629,8.807,19.629,19.631C48.607,30.689,39.801,39.497,28.978,39.497z M28.978,3.232
	c-9.172,0-16.634,7.461-16.634,16.631c0,9.172,7.462,16.634,16.634,16.634c9.17,0,16.629-7.462,16.629-16.634
	C45.607,10.693,38.148,3.232,28.978,3.232z M38.151,23.52c0-0.828-0.671-1.5-1.5-1.5s-1.5,0.672-1.5,1.5
	c0,3.402-2.77,6.171-6.173,6.171c-3.406,0-6.177-2.769-6.177-6.171c0-0.828-0.671-1.5-1.5-1.5c-0.829,0-1.5,0.672-1.5,1.5
	c0,5.057,4.116,9.171,9.177,9.171C34.036,32.691,38.151,28.577,38.151,23.52z M61.537,58.377l-2.18-3.773
	c0.897-0.399,1.526-1.297,1.526-2.344c0-1.418-1.149-2.568-2.571-2.568s-2.57,1.15-2.57,2.568c0,1.047,0.627,1.943,1.523,2.344
	l-2.181,3.773H61.537z M68.223,45.492v-2.033c0-5.464-4.445-9.91-9.91-9.91s-9.91,4.445-9.91,9.91v2.031
	c-0.145,0.229-0.229,0.5-0.229,0.791v15.344c0,0.828,0.673,1.5,1.5,1.5h17.281c0.828,0,1.5-0.672,1.5-1.5V46.281
	C68.453,45.99,68.365,45.721,68.223,45.492z M58.313,36.549c3.812,0,6.91,3.1,6.91,6.91v1.322h-13.82v-1.322
	C51.402,39.649,54.502,36.549,58.313,36.549z M65.453,60.125H51.172V47.781h14.281V60.125z M58.313,28.666
	c-9.059,0-16.776,5.754-19.75,13.79c-3.066-1.103-6.282-1.664-9.583-1.664c-15.64,0-28.363,12.726-28.363,28.363v9.112
	c0,0.828,0.671,1.5,1.5,1.5h53.723c0.828,0,1.5-0.672,1.5-1.5v-7.506c0.326,0.016,0.646,0.051,0.976,0.051
	c11.619,0,21.072-9.455,21.072-21.076C79.385,38.118,69.932,28.666,58.313,28.666z M54.338,76.768H3.615v-7.612
	c0-13.984,11.377-25.363,25.363-25.363c3.01,0,5.94,0.521,8.729,1.545c-0.304,1.42-0.47,2.892-0.47,4.399
	c0,10.263,7.375,18.822,17.1,20.688L54.338,76.768L54.338,76.768z M58.313,67.813c-9.967,0-18.075-8.108-18.075-18.076
	c0-9.963,8.108-18.07,18.075-18.07c9.965,0,18.072,8.106,18.072,18.07C76.385,59.703,68.277,67.813,58.313,67.813z"/>
</svg>
