<?xml version="1.0" encoding="utf-8"?>
<!-- Generator: Adobe Illustrator 15.0.2, SVG Export Plug-In . SVG Version: 6.00 Build 0)  -->
<!DOCTYPE svg PUBLIC "-//W3C//DTD SVG 1.1//EN" "http://www.w3.org/Graphics/SVG/1.1/DTD/svg11.dtd">
<svg version="1.1" id="Слой_1" xmlns="http://www.w3.org/2000/svg" xmlns:xlink="http://www.w3.org/1999/xlink" x="0px" y="0px"
	 width="80px" height="80px" viewBox="0 0 80 80" enable-background="new 0 0 80 80" xml:space="preserve">
<path fill="#fff" d="M38.542,54.869c-15.063,0-27.318-12.254-27.318-27.317c0-15.064,12.254-27.32,27.318-27.32
	c15.054,0,27.3,12.256,27.3,27.32C65.843,42.615,53.596,54.869,38.542,54.869z M38.542,3.232c-13.409,0-24.318,10.91-24.318,24.32
	c0,13.409,10.909,24.317,24.318,24.317c13.399,0,24.3-10.908,24.3-24.317C62.843,14.142,51.941,3.232,38.542,3.232z M60.51,27.593
	c0-4.77-1.539-9.278-4.451-13.038c-0.507-0.655-1.449-0.773-2.104-0.268c-0.654,0.507-0.774,1.45-0.267,2.104
	c2.5,3.229,3.822,7.103,3.822,11.201c0,10.084-8.199,18.29-18.276,18.29c-0.828,0-1.5,0.67-1.5,1.5c0,0.828,0.672,1.5,1.5,1.5
	C50.965,48.883,60.51,39.332,60.51,27.593z M68.014,79.572c0.721-0.406,0.975-1.322,0.566-2.043L54.823,53.227
	c-0.409-0.721-1.325-0.973-2.046-0.565s-0.975,1.323-0.565,2.045l13.757,24.301c0.276,0.488,0.784,0.763,1.307,0.763
	C67.525,79.768,67.779,79.705,68.014,79.572z"/>
</svg>
