<?xml version="1.0" encoding="utf-8"?>
<!-- Generator: Adobe Illustrator 15.0.2, SVG Export Plug-In . SVG Version: 6.00 Build 0)  -->
<!DOCTYPE svg PUBLIC "-//W3C//DTD SVG 1.1//EN" "http://www.w3.org/Graphics/SVG/1.1/DTD/svg11.dtd">
<svg version="1.1" id="Слой_1" xmlns="http://www.w3.org/2000/svg" xmlns:xlink="http://www.w3.org/1999/xlink" x="0px" y="0px"
	 width="80px" height="80px" viewBox="0 0 80 80" enable-background="new 0 0 80 80" xml:space="preserve">
<path fill="#16BCEF" d="M77.996,39.849l-12.93-17.886c-0.272-0.376-0.709-0.599-1.172-0.599H50.963
	c-0.796,0-1.443,0.646-1.443,1.444v33.189c0,0.748,0.571,1.372,1.316,1.437c0.746,0.069,1.414-0.449,1.548-1.184
	c0.593-3.299,3.218-5.874,6.527-6.398c0.411-0.063,0.829-0.099,1.243-0.099c3.9,0,7.177,2.804,7.787,6.662
	c0.078,0.489,0.111,1.001,0.091,1.521c-0.015,0.393,0.133,0.771,0.403,1.055c0.271,0.281,0.646,0.439,1.039,0.439h7.351
	c0.796,0,1.442-0.646,1.442-1.439V40.695C78.268,40.389,78.175,40.095,77.996,39.849z M75.381,56.543h-4.51
	c-0.021-0.195-0.045-0.387-0.075-0.578c-0.835-5.273-5.312-9.1-10.639-9.1c-0.564,0-1.134,0.044-1.697,0.135
	c-2.36,0.375-4.466,1.509-6.054,3.15v-25.9h10.751l12.224,16.911V56.543z M19.456,51.65c-3.787-0.498-7.267,2.859-7.869,7.414
	c-0.284,2.15,0.109,4.277,1.109,5.983c1.067,1.825,2.69,2.968,4.568,3.218c0.249,0.027,0.497,0.047,0.745,0.047
	c3.499,0,6.563-3.205,7.126-7.459c0.284-2.153-0.11-4.279-1.11-5.986C22.957,53.042,21.335,51.898,19.456,51.65z M22.27,60.475
	c-0.39,2.945-2.456,5.211-4.63,4.926c-0.975-0.127-1.847-0.769-2.454-1.811c-0.677-1.154-0.938-2.627-0.738-4.148
	c0.367-2.772,2.24-4.948,4.264-4.948c0.122,0,0.245,0.007,0.365,0.022c0.974,0.127,1.847,0.771,2.454,1.813
	C22.21,57.484,22.471,58.956,22.27,60.475z M9.563,63.436H3.449c-0.799,0-1.444-0.645-1.444-1.442c0-0.796,0.645-1.443,1.444-1.443
	h6.114c0.798,0,1.444,0.647,1.444,1.443C11.007,62.791,10.36,63.436,9.563,63.436z M11.551,65.963c0,0.799-0.644,1.445-1.443,1.445
	H6.085c-0.797,0-1.443-0.645-1.443-1.445c0-0.794,0.646-1.439,1.443-1.439h4.023C10.906,64.523,11.551,65.17,11.551,65.963z
	 M20.04,59.734c0.123,0.776-0.405,1.506-1.184,1.631c-0.778,0.121-1.506-0.406-1.629-1.186c-0.122-0.772,0.408-1.506,1.184-1.627
	C19.187,58.43,19.917,58.959,20.04,59.734z M61.659,26.648H55.18c-0.797,0-1.443,0.645-1.443,1.443v8.667
	c0,0.798,0.646,1.442,1.443,1.442h12.961c0.545,0,1.045-0.307,1.287-0.797c0.248-0.486,0.193-1.072-0.134-1.51l-6.481-8.667
	C62.544,26.863,62.115,26.648,61.659,26.648z M56.623,35.314l0.002-5.78h4.313l4.32,5.78H56.623z M52.406,65.963
	c0,0.799-0.646,1.445-1.444,1.445h-4.022c-0.793,0-1.439-0.645-1.439-1.445c0-0.794,0.645-1.439,1.439-1.439h4.023
	C51.76,64.523,52.406,65.17,52.406,65.963z M47.415,57.984V13.131c-0.001-0.798-0.646-1.445-1.442-1.445H3.176
	c-0.798,0-1.443,0.646-1.443,1.445v44.855c0,0.797,0.646,1.439,1.443,1.439h6.083c0.008-0.002,0.013-0.002,0.02,0
	c0.799,0,1.444-0.646,1.444-1.439c0-0.076-0.006-0.146-0.016-0.221c0.098-3.811,2.862-6.979,6.648-7.576
	c0.411-0.063,0.83-0.102,1.242-0.102c3.9,0,7.176,2.805,7.788,6.661c0.059,0.366,0.086,0.761,0.087,1.235
	c0.001,0.798,0.647,1.438,1.443,1.438h18.06C46.77,59.426,47.415,58.781,47.415,57.984z M4.62,14.574h39.907v28.29h-2.104
	c0.93-0.3,1.604-1.124,1.604-2.105V30.494c0-1.232-1.055-2.234-2.353-2.234h-2.419v-4.139c0-1.296-1.055-2.351-2.351-2.351h-24.29
	c-1.296,0-2.35,1.055-2.35,2.351v4.139h-2.42c-1.296,0-2.351,1.002-2.351,2.234v10.264c0,0.981,0.674,1.807,1.602,2.105H4.62V14.574
	z M41.027,31.26v8.73H39.54v-8.73H41.027z M38.141,42.865h-0.507c0.087-0.03,0.172-0.059,0.254-0.096
	C37.97,42.807,38.055,42.835,38.141,42.865z M13.266,31.818V24.77h22.991v7.048H13.266z M36.257,35.288v4.702H13.266v-4.702H36.257z
	 M11.889,42.865h-0.508c0.087-0.03,0.172-0.059,0.254-0.096C11.717,42.807,11.802,42.835,11.889,42.865z M9.982,31.26v8.73H8.494
	v-8.73H9.982z M44.529,56.543H29.271c-0.011-0.082-0.023-0.163-0.034-0.24c-0.836-5.27-5.311-9.098-10.64-9.098
	c-0.564,0-1.134,0.046-1.695,0.135c-4.787,0.76-8.379,4.521-8.993,9.203H4.62V45.749h39.909V56.543z M50.419,63.436h-6.114
	c-0.797,0-1.443-0.645-1.443-1.442c0-0.796,0.646-1.443,1.443-1.443h6.114c0.794,0,1.44,0.647,1.44,1.443
	C51.859,62.791,51.215,63.436,50.419,63.436z M60.741,51.65c-3.798-0.498-7.269,2.859-7.871,7.414
	c-0.285,2.15,0.11,4.277,1.108,5.983c1.065,1.825,2.688,2.968,4.565,3.218c0.248,0.027,0.496,0.047,0.745,0.047
	c3.498,0,6.563-3.205,7.127-7.459C67.02,56.273,64.475,52.145,60.741,51.65z M63.553,60.475c-0.392,2.945-2.449,5.211-4.632,4.926
	c-0.976-0.127-1.846-0.769-2.454-1.811c-0.677-1.154-0.939-2.627-0.738-4.148c0.369-2.772,2.242-4.948,4.267-4.948
	c0.122,0,0.241,0.007,0.364,0.022C62.48,54.795,63.941,57.527,63.553,60.475z M61.32,59.734c0.125,0.776-0.406,1.506-1.184,1.631
	c-0.777,0.121-1.507-0.406-1.629-1.186c-0.121-0.772,0.407-1.506,1.186-1.627C60.468,58.43,61.197,58.959,61.32,59.734z"/>
</svg>
