<?xml version="1.0" encoding="utf-8"?>
<!-- Generator: Adobe Illustrator 15.0.2, SVG Export Plug-In . SVG Version: 6.00 Build 0)  -->
<!DOCTYPE svg PUBLIC "-//W3C//DTD SVG 1.1//EN" "http://www.w3.org/Graphics/SVG/1.1/DTD/svg11.dtd">
<svg version="1.1" id="Слой_1" xmlns="http://www.w3.org/2000/svg" xmlns:xlink="http://www.w3.org/1999/xlink" x="0px" y="0px"
	 width="80px" height="80px" viewBox="0 0 80 80" enable-background="new 0 0 80 80" xml:space="preserve">
<path fill="#16BCEF" d="M75.389,65.963l-30.67-30.67l15.449-15.451c0.378,0.036,0.764-0.018,1.077-0.192l3.328-1.844
	c0.682-0.379,1.544-1.252,1.918-1.936l1.824-3.335c0.372-0.686,0.226-1.696-0.325-2.246l-0.607-0.604
	c-0.556-0.55-1.565-0.691-2.248-0.312l-3.328,1.844c-0.678,0.379-1.545,1.251-1.918,1.936l-1.823,3.335
	c-0.215,0.393-0.239,0.887-0.132,1.346L42.598,33.171l-9.678-9.678c1.943-4.841,0.959-10.594-2.956-14.51
	c-2.528-2.525-5.893-3.917-9.473-3.917c-0.687,0-1.38,0.053-2.059,0.158c-0.56,0.086-1.022,0.479-1.198,1.016S17.2,7.367,17.6,7.767
	l5.128,5.129l-1.269,6.569l-6.569,1.269l-5.129-5.131c-0.398-0.399-0.988-0.541-1.527-0.365c-0.537,0.176-0.93,0.639-1.016,1.198
	c-0.646,4.217,0.76,8.527,3.764,11.531c2.536,2.536,5.906,3.932,9.492,3.932c1.748,0,3.442-0.337,5.017-0.972l9.677,9.676
	l-5.539,5.54l-3.568-3.568c-0.586-0.586-1.535-0.586-2.121,0L4.201,62.305c-2.084,2.086-1.194,6.241,2.026,9.46
	c1.985,1.984,4.41,3.169,6.486,3.169c1.2,0,2.229-0.395,2.975-1.141L35.42,54.058c0.586-0.586,0.586-1.535,0-2.121l-3.672-3.672
	l5.54-5.541L67.96,73.392c1.023,1.023,2.368,1.536,3.714,1.536c1.345,0,2.69-0.513,3.716-1.537
	C77.435,71.343,77.435,68.012,75.389,65.963z M13.567,71.672c-0.217,0.217-0.584,0.262-0.854,0.262c-1.26,0-2.974-0.898-4.365-2.29
	c-2.178-2.177-2.661-4.582-2.026-5.218l18.677-18.67l7.239,7.241L13.567,71.672z M13.103,25.845
	c-1.515-1.515-2.506-3.458-2.876-5.533l3.104,3.106c0.351,0.352,0.854,0.508,1.345,0.412l8.348-1.613
	c0.602-0.116,1.072-0.586,1.188-1.188l1.612-8.347c0.095-0.489-0.06-0.993-0.412-1.345l-3.116-3.117
	c2.092,0.363,4.018,1.355,5.548,2.884c4.062,4.063,4.062,10.676,0,14.74c-1.969,1.969-4.586,3.053-7.37,3.053
	S15.071,27.814,13.103,25.845z M28.227,29.42c0.611-0.435,1.197-0.913,1.738-1.454c0.544-0.544,1.018-1.13,1.448-1.738l9.063,9.064
	l-3.188,3.189L28.227,29.42z M73.268,71.271c-0.879,0.877-2.308,0.877-3.187,0L39.409,40.603l3.188-3.189l30.669,30.669
	C74.145,68.962,74.145,70.393,73.268,71.271z"/>
</svg>
