<?xml version="1.0" encoding="utf-8"?>
<!-- Generator: Adobe Illustrator 15.0.2, SVG Export Plug-In . SVG Version: 6.00 Build 0)  -->
<!DOCTYPE svg PUBLIC "-//W3C//DTD SVG 1.1//EN" "http://www.w3.org/Graphics/SVG/1.1/DTD/svg11.dtd">
<svg version="1.1" id="Слой_1" xmlns="http://www.w3.org/2000/svg" xmlns:xlink="http://www.w3.org/1999/xlink" x="0px" y="0px"
	 width="80px" height="80px" viewBox="0 0 80 80" enable-background="new 0 0 80 80" xml:space="preserve">
<path fill="#16BCEF" d="M78.268,38.415c0-5.97-1.674-11.551-4.571-16.298c-0.016-0.079-0.031-0.158-0.06-0.236
	c-0.111-0.307-0.311-0.557-0.558-0.732C67.512,12.736,58.006,7.181,47.231,7.181c-11.278,0-21.445,6.003-26.967,15.775
	c-0.174-0.202-0.349-0.406-0.54-0.599c-1.985-1.985-4.63-3.079-7.446-3.079c-0.538,0-1.081,0.042-1.613,0.124
	c-0.579,0.088-1.059,0.495-1.242,1.052c-0.182,0.557-0.036,1.169,0.379,1.583l3.71,3.711l-0.86,4.452l-4.453,0.86l-3.71-3.71
	c-0.414-0.414-1.023-0.561-1.582-0.378c-0.558,0.183-0.965,0.662-1.053,1.242c-0.507,3.313,0.598,6.7,2.957,9.058
	c1.991,1.992,4.64,3.09,7.457,3.09c1.276,0,2.514-0.236,3.675-0.668l31.84,31.84c0.829,0.828,1.93,1.285,3.102,1.285
	c1.171,0,2.271-0.457,3.103-1.285c0.813-0.814,1.228-1.875,1.266-2.943C68.671,64.979,78.268,52.517,78.268,38.415z M54.223,65.622
	c-0.081-0.096-0.146-0.201-0.237-0.291l-5.526-5.525v-8.688c4.467,0.063,8.813,0.445,12.86,1.121
	c-0.649,4.332-1.61,8.355-2.843,11.896C57.115,64.743,55.694,65.239,54.223,65.622z M40.033,51.38
	c1.749-0.139,3.524-0.225,5.317-0.26v5.576L40.033,51.38z M29.629,39.981c0.006,0.336,0.007,0.672,0.015,1.008l-1.009-1.008H29.629z
	 M45.351,10.354v14.314c-3.971-0.085-7.843-0.418-11.479-0.997c0.666-4.11,1.605-7.94,2.805-11.307
	C39.402,11.252,42.319,10.556,45.351,10.354z M58.461,12.671c1.142,3.271,2.047,6.963,2.692,10.925
	c-4,0.661-8.289,1.031-12.694,1.088V10.32C52.004,10.476,55.376,11.301,58.461,12.671z M75.116,36.873h-9.713
	c-0.057-3.687-0.311-7.3-0.752-10.768c2.381-0.495,4.629-1.098,6.728-1.794C73.536,28.043,74.87,32.313,75.116,36.873z
	 M62.295,36.873H48.459v-9.081c4.546-0.057,8.982-0.437,13.134-1.119C62.003,29.955,62.24,33.378,62.295,36.873z M45.351,27.777
	v9.096H32.743c0.055-3.467,0.287-6.864,0.691-10.123C37.22,27.35,41.239,27.691,45.351,27.777z M32.736,39.981h12.614v8.031
	c-2.772,0.051-5.51,0.223-8.171,0.514l-4.299-4.299c0-0.012,0.003-0.025,0.002-0.037C32.802,42.8,32.759,41.392,32.736,39.981z
	 M48.459,48.009v-8.027h13.836c-0.05,3.129-0.231,6.211-0.567,9.176C57.538,48.462,53.054,48.071,48.459,48.009z M65.403,39.981
	h9.688c-0.234,4.154-1.378,8.113-3.265,11.65c-2.184-0.742-4.541-1.379-7.039-1.902C65.152,46.577,65.352,43.304,65.403,39.981z
	 M69.62,21.62c-1.706,0.534-3.517,1.001-5.413,1.401c-0.474-2.889-1.082-5.641-1.814-8.209C65.183,16.636,67.634,18.941,69.62,21.62
	z M32.777,14.323c-0.803,2.732-1.457,5.689-1.963,8.794c-2.098-0.429-4.087-0.944-5.956-1.534
	C27.035,18.636,29.724,16.181,32.777,14.323z M22.185,25.95c0.283-0.574,0.584-1.133,0.901-1.681
	c2.262,0.757,4.696,1.411,7.288,1.933c-0.434,3.438-0.683,7.02-0.739,10.671h-4.108l-3.385-3.385
	c0.886-2.392,0.877-5.037-0.027-7.424C22.138,26.025,22.165,25.991,22.185,25.95z M7.008,35.074
	c-0.711-0.711-1.258-1.537-1.625-2.432l1.2,1.199c0.365,0.365,0.887,0.526,1.394,0.427l6.296-1.216
	c0.623-0.121,1.11-0.608,1.231-1.231l1.216-6.294c0.099-0.507-0.062-1.029-0.427-1.395l-1.197-1.196
	c0.899,0.367,1.725,0.913,2.431,1.619c1.404,1.405,2.179,3.272,2.179,5.26s-0.774,3.854-2.179,5.26
	c-1.404,1.404-3.272,2.179-5.259,2.179C10.28,37.254,8.412,36.479,7.008,35.074z M51.787,69.335c-0.483,0.482-1.322,0.484-1.806,0
	L18.761,38.116c0.334-0.262,0.659-0.538,0.964-0.844c0.306-0.306,0.581-0.631,0.843-0.963l25.047,25.047
	c0.113,0.168,0.258,0.313,0.427,0.426l5.745,5.746C52.285,68.026,52.285,68.837,51.787,69.335z M62.407,61.989
	c0.812-2.855,1.476-5.928,1.968-9.17c2.045,0.438,3.985,0.951,5.804,1.541C68.111,57.374,65.472,59.972,62.407,61.989z"/>
</svg>
