<?xml version="1.0" encoding="utf-8"?>
<!-- Generator: Adobe Illustrator 15.0.2, SVG Export Plug-In . SVG Version: 6.00 Build 0)  -->
<!DOCTYPE svg PUBLIC "-//W3C//DTD SVG 1.1//EN" "http://www.w3.org/Graphics/SVG/1.1/DTD/svg11.dtd">
<svg version="1.1" id="Слой_1" xmlns="http://www.w3.org/2000/svg" xmlns:xlink="http://www.w3.org/1999/xlink" x="0px" y="0px"
	 width="80px" height="80px" viewBox="0 0 80 80" enable-background="new 0 0 80 80" xml:space="preserve">
<path fill="#16BCEF" d="M66.978,18.592c0-7.098-5.773-12.873-12.871-12.873s-12.869,5.774-12.869,12.873
	c0,7.097,5.771,12.87,12.869,12.87S66.978,25.688,66.978,18.592z M54.106,28.377c-5.396,0-9.784-4.39-9.784-9.786
	c0-5.397,4.388-9.788,9.784-9.788s9.787,4.391,9.787,9.788C63.894,23.988,59.503,28.377,54.106,28.377z M68.47,48.446
	c-0.002-4.526-1.054-9.017-3.026-13.058c3.099-5.319,5.702-11.351,5.702-16.619c0-9.395-7.644-17.037-17.039-17.037
	c-9.369,0-16.992,7.602-17.034,16.96c-0.275,0.015-0.548,0.042-0.822,0.064c-0.216,0.018-0.435,0.029-0.65,0.051
	c-0.331,0.034-0.659,0.082-0.988,0.126c-0.172,0.023-0.345,0.041-0.516,0.067c-0.319,0.049-0.636,0.111-0.954,0.17
	c-0.179,0.034-0.359,0.063-0.537,0.1c-0.292,0.06-0.581,0.132-0.87,0.201c-0.204,0.049-0.409,0.094-0.611,0.146
	c-0.26,0.068-0.519,0.146-0.778,0.221c-0.229,0.067-0.458,0.131-0.686,0.203c-0.235,0.075-0.469,0.157-0.703,0.239
	c-0.246,0.085-0.492,0.169-0.735,0.261c-0.226,0.084-0.449,0.175-0.672,0.266c-0.24,0.097-0.48,0.193-0.717,0.296
	c-0.09,0.039-0.182,0.073-0.272,0.113c-0.016,0.007-0.025,0.021-0.041,0.028C16.126,25.903,8.861,36.339,8.856,48.447
	c0,0.004-0.001,0.008-0.001,0.013s0.001,0.009,0.001,0.013c0.005,12.112,7.275,22.55,17.677,27.204
	c0.011,0.006,0.018,0.017,0.029,0.021c0.065,0.029,0.132,0.053,0.198,0.082c0.302,0.132,0.607,0.257,0.913,0.379
	c0.167,0.066,0.333,0.135,0.5,0.197c0.296,0.111,0.595,0.215,0.896,0.317c0.186,0.063,0.373,0.13,0.56,0.19
	c0.271,0.086,0.544,0.164,0.818,0.242c0.219,0.063,0.438,0.13,0.658,0.188c0.239,0.063,0.481,0.116,0.722,0.174
	c0.255,0.06,0.51,0.123,0.767,0.178c0.21,0.043,0.424,0.078,0.637,0.117c0.286,0.053,0.572,0.109,0.859,0.153
	c0.2,0.031,0.402,0.053,0.603,0.079c0.302,0.041,0.603,0.085,0.906,0.116c0.234,0.023,0.472,0.036,0.708,0.055
	c0.271,0.021,0.542,0.048,0.813,0.062c0.512,0.026,1.026,0.04,1.544,0.04c0.518,0,1.032-0.014,1.543-0.04
	c0.281-0.014,0.56-0.041,0.839-0.063c0.227-0.018,0.455-0.03,0.682-0.053c0.31-0.032,0.615-0.076,0.925-0.119
	c0.192-0.025,0.39-0.046,0.582-0.076c0.293-0.045,0.585-0.103,0.876-0.156c0.207-0.038,0.415-0.071,0.62-0.114
	c0.264-0.055,0.524-0.12,0.785-0.182c0.233-0.056,0.468-0.108,0.699-0.168c0.229-0.061,0.458-0.129,0.685-0.195
	c0.264-0.076,0.528-0.15,0.789-0.233c0.199-0.063,0.398-0.134,0.597-0.202c0.285-0.098,0.568-0.195,0.85-0.301
	c0.187-0.07,0.372-0.146,0.557-0.221c0.283-0.113,0.566-0.229,0.846-0.351c0.074-0.032,0.15-0.06,0.225-0.093
	c0.014-0.006,0.022-0.019,0.034-0.023c10.399-4.655,17.667-15.093,17.673-27.204c0-0.004,0.002-0.008,0.002-0.013
	S68.47,48.451,68.47,48.446z M62.214,61.073c-2.221-0.741-4.613-1.382-7.163-1.89c0.337-2.972,0.52-6.054,0.57-9.181h9.716
	C65.11,53.988,64.006,57.741,62.214,61.073z M48.521,73.29c-0.259,0.104-0.517,0.208-0.777,0.303
	c-0.181,0.064-0.363,0.122-0.544,0.184c-0.228,0.077-0.456,0.156-0.686,0.228c-0.23,0.071-0.464,0.134-0.696,0.199
	c-0.185,0.051-0.368,0.105-0.551,0.152c-0.281,0.072-0.566,0.135-0.85,0.197c-0.143,0.03-0.283,0.065-0.426,0.095
	c-0.313,0.064-0.632,0.118-0.951,0.171c-0.117,0.02-0.233,0.043-0.35,0.061c-0.332,0.051-0.667,0.09-1.002,0.128
	c-0.109,0.013-0.217,0.029-0.326,0.039c-0.343,0.035-0.69,0.059-1.039,0.081c-0.04,0.002-0.079,0.006-0.118,0.008V60.749
	c3.945,0.068,7.794,0.388,11.404,0.955c-0.619,4.155-1.528,8.029-2.703,11.435C48.78,73.191,48.649,73.239,48.521,73.29z
	 M35.962,75.046c-0.104-0.01-0.207-0.025-0.311-0.038c-0.34-0.038-0.681-0.078-1.017-0.129c-0.11-0.018-0.219-0.039-0.329-0.058
	c-0.326-0.053-0.651-0.108-0.974-0.174c-0.138-0.028-0.274-0.063-0.411-0.093c-0.288-0.063-0.576-0.127-0.86-0.199
	c-0.189-0.048-0.377-0.104-0.565-0.157c-0.227-0.063-0.454-0.124-0.679-0.193c-0.255-0.079-0.509-0.167-0.763-0.254
	c-0.152-0.051-0.306-0.101-0.457-0.154c-0.316-0.115-0.63-0.239-0.943-0.367c-0.077-0.031-0.156-0.06-0.233-0.092
	c-1.175-3.405-2.086-7.279-2.706-11.433c3.611-0.568,7.462-0.888,11.408-0.956v14.386c-0.036-0.002-0.071-0.005-0.106-0.008
	C36.663,75.105,36.311,75.081,35.962,75.046z M11.988,50.003h9.716c0.049,3.127,0.231,6.209,0.569,9.181
	c-2.548,0.509-4.94,1.148-7.161,1.89C13.32,57.741,12.216,53.988,11.988,50.003z M15.113,35.843c2.221,0.742,4.612,1.382,7.16,1.89
	c-0.338,2.973-0.52,6.057-0.569,9.185h-9.716C12.216,42.932,13.32,39.177,15.113,35.843z M28.995,23.553
	c0.188-0.073,0.375-0.149,0.563-0.218c0.24-0.087,0.484-0.167,0.727-0.247c0.169-0.056,0.336-0.116,0.506-0.168
	c0.282-0.086,0.568-0.165,0.854-0.243c0.133-0.036,0.265-0.076,0.398-0.11c0.321-0.083,0.647-0.155,0.974-0.226
	c0.102-0.021,0.203-0.048,0.305-0.069c0.344-0.07,0.691-0.129,1.04-0.186c0.089-0.015,0.178-0.033,0.268-0.047
	c0.352-0.053,0.707-0.096,1.063-0.136c0.09-0.009,0.178-0.023,0.268-0.033c0.352-0.036,0.708-0.06,1.064-0.081
	c0.033-0.002,0.065-0.005,0.098-0.007v14.385c-3.946-0.068-7.797-0.388-11.408-0.956c0.619-4.152,1.529-8.025,2.704-11.431
	C28.608,23.701,28.802,23.628,28.995,23.553z M40.207,39.255c1.533-0.025,3.069-0.077,4.585-0.178
	c0.104-0.007,0.207-0.024,0.305-0.052c2.119,3.235,4.226,6.012,5.727,7.892H40.207V39.255z M40.207,36.17v-5.781
	c0.908,1.94,1.947,3.854,3.035,5.678C42.231,36.118,41.221,36.153,40.207,36.17z M37.122,39.252v7.666H24.788
	c0.047-2.946,0.219-5.848,0.53-8.645C29.065,38.859,33.05,39.184,37.122,39.252z M24.788,50.003h12.333v7.661
	c-4.072,0.069-8.057,0.394-11.804,0.979C25.007,55.848,24.835,52.947,24.788,50.003z M40.207,57.664v-7.661h12.33
	c-0.048,2.944-0.219,5.845-0.53,8.641C48.261,58.058,44.275,57.733,40.207,57.664z M65.339,46.918h-7.923
	c1.591-1.967,3.844-4.91,6.069-8.345C64.54,41.228,65.173,44.052,65.339,46.918z M54.106,4.817c7.694,0,13.954,6.259,13.954,13.953
	c0,9.658-10.407,23.033-13.946,27.3c-3.53-4.316-13.961-17.866-13.961-27.3C40.153,11.076,46.413,4.817,54.106,4.817z
	 M24.584,25.759c-0.786,2.773-1.428,5.758-1.901,8.907c-2.082-0.423-4.052-0.934-5.9-1.521
	C18.857,30.19,21.512,27.672,24.584,25.759z M16.781,63.771c1.849-0.586,3.819-1.098,5.901-1.521
	c0.474,3.149,1.116,6.136,1.902,8.908C21.512,69.246,18.856,66.728,16.781,63.771z M52.741,71.161
	c0.785-2.773,1.428-5.761,1.899-8.911c2.085,0.423,4.055,0.936,5.904,1.521C58.471,66.729,55.813,69.248,52.741,71.161z"/>
</svg>
