<?xml version="1.0" encoding="utf-8"?>
<!-- Generator: Adobe Illustrator 15.0.2, SVG Export Plug-In . SVG Version: 6.00 Build 0)  -->
<!DOCTYPE svg PUBLIC "-//W3C//DTD SVG 1.1//EN" "http://www.w3.org/Graphics/SVG/1.1/DTD/svg11.dtd">
<svg version="1.1" id="Слой_1" xmlns="http://www.w3.org/2000/svg" xmlns:xlink="http://www.w3.org/1999/xlink" x="0px" y="0px"
	 width="80px" height="80px" viewBox="0 0 80 80" enable-background="new 0 0 80 80" xml:space="preserve">
<path fill="#16BCEF" d="M59.311,43.014H39.597c-0.828,0-1.5-0.672-1.5-1.5V18.998c0-0.829,0.672-1.5,1.5-1.5s1.5,0.671,1.5,1.5
	v21.017h18.213c0.828,0,1.5,0.671,1.5,1.5S60.139,43.014,59.311,43.014z M76.934,40.001c0-20.365-16.566-36.933-36.93-36.933
	c-20.367,0-36.937,16.568-36.937,36.933c0,20.364,16.57,36.931,36.937,36.931C60.367,76.932,76.934,60.365,76.934,40.001z
	 M73.934,40.001c0,18.71-15.221,33.931-33.93,33.931c-18.713,0-33.937-15.221-33.937-33.931c0-18.711,15.224-33.933,33.937-33.933
	C58.713,6.068,73.934,21.29,73.934,40.001z"/>
</svg>
