<?xml version="1.0" encoding="utf-8"?>
<!-- Generator: Adobe Illustrator 15.0.2, SVG Export Plug-In . SVG Version: 6.00 Build 0)  -->
<!DOCTYPE svg PUBLIC "-//W3C//DTD SVG 1.1//EN" "http://www.w3.org/Graphics/SVG/1.1/DTD/svg11.dtd">
<svg version="1.1" id="Слой_1" xmlns="http://www.w3.org/2000/svg" xmlns:xlink="http://www.w3.org/1999/xlink" x="0px" y="0px"
	 width="80px" height="80px" viewBox="0 0 80 80" enable-background="new 0 0 80 80" xml:space="preserve">
<path fill="#16BCEF" d="M69.503,46.295V13.678c0-2.433-1.979-4.413-4.413-4.413H51.993V4.012c0-0.843-0.685-1.527-1.527-1.527
	s-1.526,0.684-1.526,1.527v5.254H25.846V4.012c0-0.843-0.684-1.527-1.527-1.527s-1.527,0.684-1.527,1.527v5.254H11.92
	c-2.434,0-4.413,1.979-4.413,4.413v50.635c0,2.434,1.979,4.414,4.413,4.414h32.558c2.788,6.063,8.904,10.292,16.004,10.292
	c9.714,0,17.618-7.902,17.618-17.618C78.1,54.985,74.641,49.377,69.503,46.295z M11.92,12.319h10.872v4.358
	c0,0.844,0.684,1.527,1.527,1.527s1.527-0.683,1.527-1.527v-4.358h23.094v4.358c0,0.844,0.684,1.527,1.526,1.527
	s1.527-0.683,1.527-1.527v-4.358H65.09c0.75,0,1.359,0.609,1.359,1.359v10.214H10.561V13.678
	C10.561,12.929,11.17,12.319,11.92,12.319z M11.92,65.674c-0.75,0-1.359-0.61-1.359-1.36V26.946h55.888v17.899
	c-0.913-0.33-1.855-0.591-2.83-0.768v-5.089h-6.452v5.117c-0.748,0.144-1.479,0.335-2.189,0.569v-5.686h-6.452v6.452h4.541
	c-6.016,2.807-10.205,8.896-10.205,15.961c0,1.475,0.203,2.902,0.546,4.272H11.92z M60.481,75.966
	c-8.032,0-14.566-6.533-14.566-14.564c0-8.03,6.534-14.565,14.566-14.565c2.352,0,4.567,0.574,6.536,1.568
	c0.161,0.129,0.347,0.229,0.553,0.284c4.454,2.495,7.476,7.255,7.476,12.713C75.046,69.433,68.513,75.966,60.481,75.966z
	 M68.363,55.27l-7.499,13.746c-0.268,0.491-0.781,0.795-1.34,0.795c-0.001,0-0.002,0-0.003,0c-0.56,0-1.074-0.308-1.341-0.799
	l-5.102-9.428c-0.401-0.742-0.125-1.668,0.617-2.07c0.739-0.401,1.668-0.127,2.069,0.617l3.765,6.956l6.153-11.28
	c0.403-0.74,1.331-1.013,2.071-0.608C68.494,53.602,68.768,54.53,68.363,55.27z M13.959,30.937h6.452v6.452h-6.452V30.937z
	 M22.601,30.937h6.452v6.452h-6.452V30.937z M31.243,30.937h6.452v6.452h-6.452V30.937z M46.336,37.389h-6.452v-6.452h6.452V37.389z
	 M54.978,37.389h-6.452v-6.452h6.452V37.389z M63.619,37.389h-6.452v-6.452h6.452V37.389z M13.959,38.989h6.452v6.452h-6.452V38.989
	z M22.601,38.989h6.452v6.452h-6.452V38.989z M31.243,38.989h6.452v6.452h-6.452V38.989z M46.336,45.44h-6.452v-6.452h6.452V45.44z
	 M13.959,47.04h6.452v6.452h-6.452V47.04z M22.601,47.04h6.452v6.452h-6.452V47.04z M31.243,47.04h6.452v6.452h-6.452V47.04z"/>
</svg>
