<?xml version="1.0" encoding="utf-8"?>
<!-- Generator: Adobe Illustrator 15.0.2, SVG Export Plug-In . SVG Version: 6.00 Build 0)  -->
<!DOCTYPE svg PUBLIC "-//W3C//DTD SVG 1.1//EN" "http://www.w3.org/Graphics/SVG/1.1/DTD/svg11.dtd">
<svg version="1.1" id="Слой_1" xmlns="http://www.w3.org/2000/svg" xmlns:xlink="http://www.w3.org/1999/xlink" x="0px" y="0px"
	 width="80px" height="80px" viewBox="0 0 80 80" enable-background="new 0 0 80 80" xml:space="preserve">
<path fill="#16BCEF" d="M63.116,51.955c-0.183,0.718-0.827,1.197-1.537,1.197c-0.127,0-0.257-0.017-0.388-0.047l-15.002-3.772
	c-0.444-0.112-0.819-0.413-1.026-0.822c-0.208-0.409-0.228-0.888-0.054-1.313l7.306-17.861c0.332-0.809,1.254-1.199,2.065-0.866
	c0.811,0.331,1.199,1.256,0.867,2.066l-6.613,16.168l13.23,3.328C62.813,50.246,63.327,51.105,63.116,51.955z M75.811,54.055
	c-5.57,13.611-19.248,23.12-33.266,23.12c-2.408,0-4.781-0.29-7.052-0.86C28.28,74.502,22.52,69.964,19.272,63.54
	c-3.602-7.123-3.723-15.962-0.333-24.248c0.392-0.959,0.834-1.892,1.304-2.809H3.317c-0.876,0-1.585-0.709-1.585-1.584
	s0.71-1.584,1.585-1.584h18.771c0.608-0.942,1.253-1.857,1.94-2.738H15.09c-0.876,0-1.585-0.709-1.585-1.584s0.71-1.584,1.585-1.584
	h11.702c0.98-1.007,2.009-1.961,3.088-2.851H14.448c-0.875,0-1.584-0.709-1.584-1.584s0.709-1.584,1.584-1.584h18.34
	c0.375,0,0.716,0.136,0.987,0.353c2.606-1.651,5.387-2.987,8.282-3.927l-0.467-1.924l-0.018,0.006
	c-0.86,0.331-1.718-0.054-1.913-0.86l-0.189-0.78c-0.196-0.806,0.344-1.729,1.205-2.059l3.359-1.292
	c0.862-0.33,1.719,0.056,1.917,0.862l0.188,0.778c0.196,0.807-0.345,1.729-1.205,2.06l-0.018,0.006l0.561,2.303
	c2.213-0.474,4.463-0.746,6.729-0.746c0.859,0,1.715,0.05,2.564,0.124l1.479-3.614c-0.418-0.345-0.768-0.77-1.021-1.271
	c-0.563-1.112-0.594-2.467-0.084-3.716l0.644-1.57c0.795-1.944,2.769-3.302,4.797-3.302c0.367,0,0.731,0.045,1.084,0.133
	l6.077,1.528c1.16,0.291,2.09,1.029,2.617,2.074c0.563,1.113,0.594,2.466,0.08,3.715L69.8,11.84
	c-0.754,1.844-2.567,3.147-4.485,3.277l-1.446,3.538c2.507,1.152,4.763,2.678,6.709,4.534l2.122-1.588l-0.008-0.012
	c-0.457-0.663-0.211-1.66,0.545-2.226l0.732-0.547c0.758-0.567,1.74-0.489,2.197,0.173l1.773,2.583
	c0.455,0.662,0.211,1.66-0.545,2.225l-0.733,0.548c-0.757,0.566-1.739,0.489-2.196-0.174l-0.009-0.013l-1.769,1.324
	c1.065,1.323,2.004,2.766,2.789,4.322C79.078,36.929,79.2,45.77,75.811,54.055z M58.053,9.981c0.11,0.219,0.299,0.363,0.563,0.429
	l0.029,0.007l3.01,0.757l3.037,0.764c0.779,0.198,1.818-0.426,2.175-1.296l0.644-1.57c0.161-0.397,0.17-0.793,0.022-1.085
	c-0.11-0.22-0.3-0.365-0.563-0.431l-6.078-1.528c-0.098-0.025-0.203-0.037-0.31-0.037c-0.753,0-1.552,0.574-1.863,1.333l-0.642,1.57
	C57.912,9.292,57.904,9.688,58.053,9.981z M61.337,14.362l-2.134-0.536l-1.053,2.569l2.918,0.733l1.051-2.57L61.337,14.362z
	 M72.648,31.234c-2.826-5.59-7.855-9.542-14.162-11.128c-2.019-0.508-4.135-0.766-6.283-0.766c-12.765,0-25.237,8.699-30.333,21.153
	c-3.042,7.437-2.959,15.315,0.228,21.618c2.827,5.593,7.858,9.547,14.167,11.133c2.019,0.507,4.132,0.766,6.279,0.766
	c12.765,0,25.237-8.699,30.332-21.154C75.918,45.42,75.836,37.538,72.648,31.234z"/>
</svg>
