<?xml version="1.0" encoding="utf-8"?>
<!-- Generator: Adobe Illustrator 15.0.2, SVG Export Plug-In . SVG Version: 6.00 Build 0)  -->
<!DOCTYPE svg PUBLIC "-//W3C//DTD SVG 1.1//EN" "http://www.w3.org/Graphics/SVG/1.1/DTD/svg11.dtd">
<svg version="1.1" id="Слой_1" xmlns="http://www.w3.org/2000/svg" xmlns:xlink="http://www.w3.org/1999/xlink" x="0px" y="0px"
	 width="80px" height="80px" viewBox="0 0 80 80" enable-background="new 0 0 80 80" xml:space="preserve">
<path fill="#16BCEF" d="M66.824,39.525c-0.44-1.146-1.586-2.513-4.549-2.513c-2.112,0-3.582,1.268-4.809,2.955
	c-0.599-0.335-1.169-0.373-1.589-0.324c-1.09,0.13-2.093,0.92-3.018,1.988c-1.321-0.159-3.214,0.129-4.396,1.154
	c-0.249,0.217-0.438,0.461-0.595,0.717c-1.7,0.049-3.446,0.576-4.581,1.133c-3.039,1.205-4.775,1.311-7.911,1.5l-0.975,0.061
	c-3.86,0.253-7.411,2.198-10.268,5.623l0.004,0.004c-0.342,0.418-1.562,1.978-2.065,3.457c-0.14-0.011-0.274-0.042-0.416-0.042
	c-1.478,0-2.875,0.566-3.936,1.593l-4.329,4.181c-0.297,0.286-0.468,0.679-0.475,1.092c-0.007,0.412,0.15,0.811,0.437,1.107
	l14.104,14.584c0.287,0.297,0.68,0.467,1.092,0.474c0.009,0,0.018,0,0.025,0c0.403,0,0.791-0.156,1.081-0.437l4.326-4.188
	c1.087-1.05,1.7-2.461,1.726-3.974c0.018-1.007-0.249-1.967-0.726-2.823c0.638-0.046,1.296-0.089,1.98-0.131
	c2.764-0.171,5.621-0.35,7.598-0.807c4.603-1.211,8.662-5.011,11.925-8.063l0.79-0.738C58.51,55.998,68.831,44.76,66.824,39.525z
	 M56.124,41.7c0.044-0.005,0.113-0.013,0.206,0.017c-0.249,0.418-0.492,0.845-0.735,1.27c-0.863,1.512-1.747,3.047-2.792,4.098
	c-0.048-0.511-0.175-0.938-0.341-1.301C53.271,44.465,54.956,41.84,56.124,41.7z M51.306,43.742
	c-0.097,0.147-0.193,0.293-0.288,0.441c-0.148-0.088-0.303-0.166-0.463-0.236C50.786,43.86,51.04,43.791,51.306,43.742z
	 M31.822,71.408l-3.21,3.107L16.67,62.166l3.213-3.102c0.98-0.949,2.66-0.921,3.609,0.061l6.72,6.948
	c0.153,0.48,0.509,0.851,0.972,1.004l0.699,0.724c0.474,0.49,0.729,1.135,0.718,1.818C32.589,70.3,32.313,70.936,31.822,71.408z
	 M55.179,54.814l-0.817,0.762c-3.163,2.961-6.748,6.315-10.547,7.315c-1.68,0.389-4.406,0.559-7.044,0.722
	c-1.562,0.098-3.049,0.191-4.295,0.329l-6.749-6.979c-0.177-0.183-0.377-0.33-0.572-0.485c-0.016-0.13-0.025-0.263-0.071-0.38
	c0.326-0.711,1.08-1.896,1.344-2.185c0.033-0.033,0.064-0.069,0.095-0.104c1.603-1.923,4.307-4.265,8.081-4.513l0.962-0.06
	c3.248-0.196,5.394-0.326,8.933-1.738c0.04-0.017,0.079-0.033,0.119-0.054c1.649-0.825,4.166-1.101,4.895-0.539
	c0.282,0.218,0.229,0.795,0.117,1.343c-0.217,1.519-2.141,2.33-4.634,3.233c-0.815,0.296-1.585,0.575-2.252,0.906
	c-0.769,0.384-1.08,1.316-0.697,2.086c0.384,0.769,1.315,1.075,2.085,0.697c0.507-0.253,1.195-0.503,1.924-0.768
	c1.809-0.654,4.079-1.481,5.455-3.063c3.331-0.767,5.161-3.968,6.785-6.814c1.293-2.267,2.514-4.406,3.981-4.406
	c0.541,0,1.474,0.067,1.646,0.519C64.912,43.221,57.776,52.479,55.179,54.814z M38.592,42.09c6.326,0,11.472-5.148,11.472-11.475
	c0-6.326-5.146-11.472-11.472-11.472c-6.325,0-11.472,5.146-11.472,11.472C27.12,36.942,32.267,42.09,38.592,42.09z M38.592,22.251
	c4.611,0,8.363,3.752,8.363,8.364c0,4.613-3.752,8.366-8.363,8.366s-8.363-3.753-8.363-8.366
	C30.229,26.003,33.98,22.251,38.592,22.251z M35.561,35.488h2.063v-1.034h1.897v-2.063h-1.897v-0.442
	c0.192,0.041,0.439,0.055,0.713,0.055c1.231,0,2.285-0.314,2.998-0.971c0.559-0.505,0.845-1.285,0.845-2.188
	c0-0.904-0.383-1.668-0.984-2.133c-0.617-0.493-1.533-0.74-2.816-0.74c-1.273,0-2.175,0.083-2.818,0.19v6.228h-1.762v2.063h1.762
	V35.488z M37.624,27.626c0.152-0.041,0.439-0.066,0.849-0.066c1.054,0,1.643,0.506,1.643,1.354c0,0.931-0.684,1.492-1.794,1.492
	c-0.313,0-0.518-0.014-0.697-0.056V27.626z M50.924,21.216c5.374,0,9.745-4.372,9.745-9.744c0-5.371-4.371-9.74-9.745-9.74
	c-5.371,0-9.741,4.369-9.741,9.74C41.183,16.845,45.553,21.216,50.924,21.216z M50.924,4.841c3.66,0,6.637,2.975,6.637,6.632
	c0,3.659-2.977,6.635-6.637,6.635c-3.657,0-6.633-2.977-6.633-6.635C44.291,7.816,47.267,4.841,50.924,4.841z M48.421,15.495h1.706
	v-0.851h1.563v-1.705h-1.563v-0.363c0.159,0.034,0.363,0.045,0.588,0.045c1.019,0,1.884-0.261,2.473-0.802
	c0.464-0.418,0.698-1.061,0.698-1.807c0-0.744-0.313-1.377-0.812-1.763C52.568,7.843,51.81,7.64,50.747,7.64
	c-1.048,0-1.796,0.068-2.326,0.159v5.14H46.97v1.705h1.451V15.495z M50.127,9.006c0.124-0.034,0.363-0.055,0.698-0.055
	c0.872,0,1.358,0.417,1.358,1.117c0,0.769-0.567,1.23-1.481,1.23c-0.259,0-0.429-0.01-0.575-0.044V9.006z"/>
</svg>
