<?xml version="1.0" encoding="utf-8"?>
<!-- Generator: Adobe Illustrator 15.0.2, SVG Export Plug-In . SVG Version: 6.00 Build 0)  -->
<!DOCTYPE svg PUBLIC "-//W3C//DTD SVG 1.1//EN" "http://www.w3.org/Graphics/SVG/1.1/DTD/svg11.dtd">
<svg version="1.1" id="Слой_1" xmlns="http://www.w3.org/2000/svg" xmlns:xlink="http://www.w3.org/1999/xlink" x="0px" y="0px"
	 width="80px" height="80px" viewBox="0 0 80 80" enable-background="new 0 0 80 80" xml:space="preserve">
<path fill="#16BCEF" d="M59.9,38.319c-0.63-0.584-0.666-1.567-0.082-2.196l4.193-4.518c0.008-0.007,0.016-0.012,0.022-0.019
	c0.045-0.046,0.095-0.086,0.145-0.126c0.03-0.024,0.058-0.052,0.09-0.073c0.062-0.043,0.128-0.078,0.196-0.111
	c0.023-0.012,0.046-0.028,0.071-0.04c0.085-0.036,0.174-0.063,0.267-0.085c0.011-0.002,0.02-0.007,0.031-0.01
	c0.103-0.021,0.208-0.033,0.317-0.033s0.216,0.012,0.317,0.033c0.012,0.003,0.021,0.008,0.032,0.01
	c0.092,0.021,0.181,0.049,0.266,0.085c0.025,0.011,0.048,0.027,0.072,0.039c0.067,0.034,0.134,0.068,0.196,0.111
	c0.032,0.021,0.06,0.049,0.089,0.073c0.051,0.041,0.1,0.081,0.145,0.126c0.007,0.007,0.015,0.012,0.022,0.019l4.191,4.518
	c0.584,0.629,0.548,1.613-0.081,2.197c-0.63,0.583-1.612,0.548-2.197-0.082l-1.498-1.615v5.055c0,0.859-0.696,1.554-1.555,1.554
	s-1.554-0.694-1.554-1.554v-5.056l-1.501,1.616c-0.307,0.33-0.723,0.497-1.14,0.497C60.579,38.735,60.199,38.598,59.9,38.319z
	 M70.405,50.025c-0.63-0.583-1.613-0.549-2.197,0.081l-1.499,1.617v-5.058c0-0.858-0.696-1.554-1.555-1.554
	c-0.857,0-1.554,0.695-1.554,1.554v5.058l-1.502-1.617c-0.585-0.63-1.567-0.664-2.196-0.081c-0.63,0.585-0.666,1.568-0.082,2.195
	l4.194,4.52c0.008,0.006,0.016,0.012,0.022,0.018c0.044,0.047,0.093,0.085,0.141,0.124c0.031,0.026,0.061,0.055,0.094,0.077
	c0.061,0.042,0.125,0.074,0.19,0.108c0.026,0.013,0.051,0.028,0.077,0.041c0.083,0.036,0.17,0.063,0.259,0.083
	c0.014,0.004,0.025,0.01,0.039,0.012c0.104,0.022,0.208,0.032,0.317,0.032s0.215-0.01,0.318-0.032
	c0.013-0.002,0.024-0.008,0.038-0.012c0.089-0.021,0.176-0.047,0.259-0.083c0.026-0.011,0.051-0.028,0.077-0.041
	c0.065-0.034,0.131-0.066,0.191-0.108c0.032-0.022,0.062-0.051,0.093-0.077c0.049-0.039,0.098-0.077,0.141-0.124
	c0.007-0.006,0.016-0.012,0.022-0.018l4.193-4.52C71.07,51.592,71.034,50.608,70.405,50.025z M59.128,15.447v61.267
	c0,0.858-0.696,1.554-1.555,1.554H10.652c-0.858,0-1.554-0.695-1.554-1.554V15.447c0-0.859,0.696-1.554,1.554-1.554h46.921
	C58.432,13.893,59.128,14.588,59.128,15.447z M26.304,23.366v51.793h16.309V23.366H26.304z M45.722,23.366v51.793h5.424V23.366
	H45.722z M23.196,23.366H17.08v51.793h6.116V23.366z M56.02,17.001H12.206v58.158h1.766V21.812c0-0.858,0.696-1.554,1.554-1.554
	h37.173c0.858,0,1.555,0.696,1.555,1.554v53.348h1.766V17.001z M23.789,12.056c0-5.692,4.632-10.324,10.326-10.324
	c5.692,0,10.323,4.631,10.323,10.324c0,0.859-0.695,1.554-1.554,1.554H25.343C24.485,13.61,23.789,12.915,23.789,12.056z
	 M27.066,10.502H41.16c-0.711-3.233-3.6-5.661-7.045-5.661C30.668,4.841,27.778,7.269,27.066,10.502z"/>
</svg>
