<?xml version="1.0" encoding="utf-8"?>
<!-- Generator: Adobe Illustrator 15.0.2, SVG Export Plug-In . SVG Version: 6.00 Build 0)  -->
<!DOCTYPE svg PUBLIC "-//W3C//DTD SVG 1.1//EN" "http://www.w3.org/Graphics/SVG/1.1/DTD/svg11.dtd">
<svg version="1.1" id="Слой_1" xmlns="http://www.w3.org/2000/svg" xmlns:xlink="http://www.w3.org/1999/xlink" x="0px" y="0px"
	 width="80px" height="80px" viewBox="0 0 80 80" enable-background="new 0 0 80 80" xml:space="preserve">
<path fill="#16BCEF" d="M42.191,60.654c-0.652-0.605-0.689-1.624-0.086-2.276l8.414-9.066c0.006-0.007,0.015-0.011,0.022-0.017
	c0.292-0.306,0.702-0.497,1.158-0.497c0.457,0,0.866,0.19,1.159,0.497c0.006,0.006,0.015,0.01,0.021,0.017l8.415,9.066
	c0.604,0.652,0.566,1.671-0.086,2.276c-0.31,0.287-0.702,0.431-1.095,0.431c-0.432,0-0.864-0.174-1.181-0.516l-5.624-6.059v13.99
	c0,0.889-0.722,1.61-1.61,1.61c-0.89,0-1.61-0.722-1.61-1.61v-13.99l-5.623,6.059C43.86,61.221,42.844,61.258,42.191,60.654z
	 M71.275,45.948V75.5c0,0.89-0.721,1.61-1.61,1.61H33.993c-0.889,0-1.61-0.721-1.61-1.61V45.911c0-0.05,0.011-0.099,0.015-0.147
	c-0.004-0.363,0.098-0.725,0.329-1.02l6.242-7.939c0.306-0.388,0.772-0.615,1.267-0.615h23.187c0.495,0,0.961,0.227,1.267,0.615
	l6.107,7.767c0.311,0.294,0.501,0.709,0.501,1.169C71.297,45.811,71.287,45.879,71.275,45.948z M41.018,39.411l-0.579,0.736h6.949
	c0.89,0,1.61,0.721,1.61,1.611c0,0.889-0.721,1.61-1.61,1.61h-9.481l-0.598,0.762H66.35l-0.656-0.836
	c-0.146,0.043-0.3,0.074-0.459,0.074H54.972c-0.89,0-1.61-0.722-1.61-1.61c0-0.89,0.721-1.611,1.61-1.611h8.248l-0.579-0.736H41.018
	z M68.055,47.522H35.604V73.89h32.451V47.522z M31.25,3.343v73.314c0,0.889-0.721,1.61-1.611,1.61c-0.889,0-1.61-0.722-1.61-1.61
	v-1.135H11.923v1.135c0,0.889-0.721,1.61-1.61,1.61c-0.889,0-1.61-0.722-1.61-1.61V3.343c0-0.89,0.721-1.611,1.61-1.611
	c0.89,0,1.61,0.721,1.61,1.611v5.92h16.106v-5.92c0-0.89,0.722-1.611,1.61-1.611C30.529,1.732,31.25,2.453,31.25,3.343z
	 M28.029,51.288v-3.782H11.923v3.782H28.029z M11.923,54.51v3.783h16.106V54.51H11.923z M28.029,44.285v-3.784H11.923v3.784H28.029z
	 M28.029,37.28v-3.783H11.923v3.783H28.029z M28.029,30.275v-3.783H11.923v3.783H28.029z M28.029,23.271v-3.783H11.923v3.783H28.029
	z M11.923,65.297h16.106v-3.783H11.923V65.297z M11.923,12.484v3.783h16.106v-3.783H11.923z M28.029,72.302v-3.783H11.923v3.783
	H28.029z"/>
</svg>
