<?xml version="1.0" encoding="utf-8"?>
<!-- Generator: Adobe Illustrator 15.0.2, SVG Export Plug-In . SVG Version: 6.00 Build 0)  -->
<!DOCTYPE svg PUBLIC "-//W3C//DTD SVG 1.1//EN" "http://www.w3.org/Graphics/SVG/1.1/DTD/svg11.dtd">
<svg version="1.1" id="Слой_1" xmlns="http://www.w3.org/2000/svg" xmlns:xlink="http://www.w3.org/1999/xlink" x="0px" y="0px"
	 width="80px" height="80px" viewBox="0 0 80 80" enable-background="new 0 0 80 80" xml:space="preserve">
<path fill="#16BCEF" d="M15.791,62.036c-0.108-0.678,0.355-1.316,1.036-1.424c0.68-0.106,1.316,0.357,1.423,1.033
	c0.109,0.682-0.356,1.313-1.035,1.427C16.534,63.18,15.898,62.72,15.791,62.036z M10.353,63.624c0-0.695-0.568-1.26-1.264-1.26
	H3.743c-0.697,0-1.261,0.564-1.261,1.26c0,0.696,0.564,1.261,1.261,1.261h5.346C9.785,64.885,10.353,64.32,10.353,63.624z
	 M9.566,65.835H6.048c-0.696,0-1.26,0.563-1.26,1.26c0,0.697,0.564,1.263,1.26,1.263h3.518c0.698,0,1.261-0.563,1.261-1.263
	C10.827,66.398,10.264,65.835,9.566,65.835z M66.591,57.393c0.876,1.491,1.217,3.351,0.972,5.233
	c-0.492,3.719-3.169,6.524-6.229,6.524c-0.217,0-0.436-0.02-0.654-0.046c-1.64-0.213-3.056-1.215-3.991-2.81
	c-0.873-1.491-1.22-3.351-0.968-5.232c0.523-3.979,3.564-6.918,6.877-6.479C64.24,54.8,65.66,55.798,66.591,57.393z M64.413,58.671
	c-0.534-0.91-1.294-1.471-2.146-1.584c-0.106-0.015-0.214-0.021-0.321-0.021c-1.768,0-3.407,1.9-3.724,4.325
	c-0.179,1.333,0.054,2.622,0.645,3.632c0.527,0.904,1.294,1.471,2.146,1.578c1.9,0.255,3.705-1.731,4.047-4.305
	C65.234,60.97,65.005,59.679,64.413,58.671z M61.685,60.612c-0.679,0.107-1.142,0.746-1.033,1.424
	c0.104,0.684,0.743,1.144,1.42,1.036c0.683-0.113,1.144-0.745,1.033-1.427C63.001,60.97,62.36,60.506,61.685,60.612z M55.209,63.624
	c0-0.695-0.563-1.26-1.261-1.26h-5.346c-0.699,0-1.261,0.564-1.261,1.26c0,0.696,0.562,1.261,1.261,1.261h5.346
	C54.645,64.885,55.209,64.32,55.209,63.624z M54.428,65.835h-3.52c-0.695,0-1.258,0.563-1.258,1.26c0,0.697,0.563,1.263,1.258,1.263
	h3.52c0.697,0,1.261-0.563,1.261-1.263C55.688,66.398,55.125,65.835,54.428,65.835z M79.017,46.122v13.101
	c0,0.875-0.71,1.586-1.586,1.586h-8.174c-0.875,0-1.586-0.71-1.586-1.586c-0.001-3.194-2.6-5.795-5.793-5.795
	c-3.194,0-5.793,2.601-5.794,5.795c0,0.876-0.71,1.586-1.587,1.586H24.538c-0.875,0-1.586-0.71-1.586-1.586
	c-0.001-3.194-2.599-5.795-5.792-5.795c-3.133,0-5.687,2.502-5.785,5.611c1.113-2.898,3.649-4.814,6.364-4.456
	c1.643,0.217,3.061,1.215,3.997,2.81c0.872,1.491,1.217,3.351,0.965,5.233c-0.491,3.719-3.169,6.524-6.228,6.524
	c-0.216,0-0.436-0.02-0.649-0.046c-1.647-0.213-3.063-1.215-3.998-2.81c-0.873-1.491-1.216-3.351-0.968-5.232
	c0.04-0.294,0.096-0.581,0.162-0.864c-0.291,0.37-0.736,0.61-1.242,0.61H4.247c-0.876,0-1.586-0.711-1.586-1.586V46.122
	c0-0.876,0.71-1.586,1.586-1.586h11.852l4.04-19.713h-3.66c-0.876,0-1.586-0.71-1.586-1.587v-8.323c0-0.876,0.71-1.586,1.586-1.586
	h40.923c0.876,0,1.586,0.71,1.586,1.586v8.323c0,0.876-0.71,1.587-1.586,1.587h-4.072l5.018,19.713h19.084
	C78.307,44.536,79.017,45.246,79.017,46.122z M14.005,65.022c0.531,0.904,1.293,1.471,2.146,1.578
	c1.899,0.255,3.706-1.731,4.047-4.305c0.173-1.326-0.054-2.617-0.646-3.625c-0.529-0.91-1.295-1.471-2.148-1.584
	c-0.105-0.015-0.209-0.021-0.315-0.021c-1.773,0-3.406,1.9-3.729,4.325C13.187,62.724,13.415,64.013,14.005,65.022z M24.676,16.499
	l1.746,5.15h6.351l-6.455-5.15H24.676z M43.875,21.649l1.394-5.15H31.404l6.455,5.15H43.875z M55.814,16.499h-7.259l-1.395,5.15
	h8.653V16.499z M18.064,21.649h5.007l-1.746-5.15h-3.262V21.649z M75.845,47.708h-18.73c-0.726,0-1.358-0.49-1.539-1.194
	l-5.145-20.217H25.787c-0.001,0-0.002,0-0.003,0s-0.002,0-0.003,0h-2.707L18.946,46.44c-0.151,0.738-0.801,1.268-1.554,1.268H5.833
	v9.928h2.5c0.752-4.189,4.424-7.38,8.826-7.38c4.402,0,8.073,3.19,8.824,7.38h27.068c0.752-4.189,4.424-7.38,8.826-7.38
	c4.401,0,8.074,3.19,8.825,7.38h5.142V47.708z M54.048,46.166c0.108,0.476-0.009,0.976-0.319,1.354
	c-0.301,0.369-0.752,0.582-1.227,0.582c-0.014,0-0.024,0-0.037,0l-31.122-0.701c-0.462-0.011-0.896-0.223-1.189-0.578
	c-0.293-0.358-0.417-0.824-0.338-1.28l3.062-17.647c0.132-0.76,0.792-1.315,1.563-1.315h23.895c0.74,0,1.383,0.513,1.547,1.235
	L54.048,46.166z M50.504,44.885L47.07,29.753H25.776l-2.519,14.518L50.504,44.885z"/>
</svg>
