<?xml version="1.0" encoding="utf-8"?>
<!-- Generator: Adobe Illustrator 15.0.2, SVG Export Plug-In . SVG Version: 6.00 Build 0)  -->
<!DOCTYPE svg PUBLIC "-//W3C//DTD SVG 1.1//EN" "http://www.w3.org/Graphics/SVG/1.1/DTD/svg11.dtd">
<svg version="1.1" id="Слой_1" xmlns="http://www.w3.org/2000/svg" xmlns:xlink="http://www.w3.org/1999/xlink" x="0px" y="0px"
	 width="80px" height="80px" viewBox="0 0 80 80" enable-background="new 0 0 80 80" xml:space="preserve">
<path fill="#16BCEF" d="M7.233,36.489h22.841v3.108H7.233V36.489z M71.494,40.657v22.722c0,3.009-2.449,5.458-5.458,5.458H7.19
	c-3.01,0-5.458-2.449-5.458-5.458V31.364c0-3.01,2.448-5.458,5.458-5.458h38.562c0.785-8.26,7.756-14.743,16.219-14.743
	c8.986,0,16.297,7.311,16.297,16.298C78.268,32.89,75.589,37.694,71.494,40.657z M48.782,27.461c0,7.271,5.916,13.188,13.188,13.188
	c7.271,0,13.188-5.916,13.188-13.188c0-7.272-5.917-13.189-13.188-13.189C54.698,14.271,48.782,20.188,48.782,27.461z
	 M68.386,63.379v-1.913H4.841v1.913c0,1.295,1.054,2.35,2.35,2.35h58.846C67.331,65.729,68.386,64.674,68.386,63.379z
	 M68.386,42.438c-1.971,0.847-4.138,1.319-6.415,1.319c-8.463,0-15.434-6.483-16.219-14.742H7.19c-1.296,0-2.35,1.055-2.35,2.35
	v19.909h63.545V42.438z M59.728,34.507c0.271,0.5,0.794,0.813,1.363,0.814c0.001,0,0.002,0,0.003,0c0.569,0,1.092-0.311,1.364-0.811
	l6.87-12.594c0.412-0.753,0.134-1.697-0.619-2.108s-1.698-0.134-2.108,0.62l-5.5,10.082l-3.313-6.122
	c-0.408-0.755-1.354-1.034-2.106-0.627c-0.755,0.408-1.036,1.352-0.627,2.106L59.728,34.507z"/>
</svg>
